G04*
G04 #@! TF.GenerationSoftware,Altium Limited,Altium Designer,18.1.9 (240)*
G04*
G04 Layer_Color=8421504*
%FSLAX44Y44*%
%MOMM*%
G71*
G01*
G75*
%ADD14R,1.4000X1.6400*%
%ADD15R,0.8000X0.8000*%
%ADD16R,0.8000X0.8000*%
%ADD17R,1.3000X0.9000*%
%ADD18R,0.9000X1.3000*%
%ADD19R,0.6000X0.9000*%
%ADD20R,0.9000X0.6000*%
%ADD21R,0.5588X0.6858*%
%ADD22R,2.0000X2.7000*%
%ADD23R,2.7000X2.0000*%
%ADD24C,0.3400*%
%ADD25R,1.2000X0.7000*%
%ADD26R,1.2000X1.0000*%
%ADD27R,1.8999X1.3000*%
%ADD28R,2.8001X1.0000*%
%ADD29R,0.8001X1.0000*%
%ADD30R,1.2000X1.0000*%
%ADD31R,1.3500X0.4000*%
%ADD32R,1.1000X0.6000*%
%ADD33R,0.6000X1.1000*%
%ADD34R,0.4350X1.5260*%
%ADD35R,1.7850X0.6500*%
%ADD36R,0.6000X1.2950*%
%ADD37R,2.0000X1.8000*%
D14*
X124650Y348000D02*
D03*
X84350D02*
D03*
D15*
X94000Y59000D02*
D03*
Y74000D02*
D03*
X161000Y99500D02*
D03*
Y114500D02*
D03*
X178000Y360000D02*
D03*
Y344000D02*
D03*
D16*
X43500Y308000D02*
D03*
X28500D02*
D03*
X103000Y162700D02*
D03*
X119000D02*
D03*
X66000Y481000D02*
D03*
X82000D02*
D03*
X143000Y342000D02*
D03*
X159000D02*
D03*
X219223Y169600D02*
D03*
X235223D02*
D03*
D17*
X61000Y283500D02*
D03*
Y264500D02*
D03*
X20000Y33500D02*
D03*
Y14500D02*
D03*
X112000Y81500D02*
D03*
Y100500D02*
D03*
X20000Y50500D02*
D03*
Y69500D02*
D03*
X61000Y319500D02*
D03*
Y300500D02*
D03*
X34000Y205500D02*
D03*
Y224500D02*
D03*
X186000Y85500D02*
D03*
Y66500D02*
D03*
X207000Y85500D02*
D03*
Y66500D02*
D03*
D18*
X131500Y82000D02*
D03*
X150500D02*
D03*
X67000Y173000D02*
D03*
X86000D02*
D03*
X56500Y362000D02*
D03*
X37500D02*
D03*
X55750Y340000D02*
D03*
X36750D02*
D03*
X180500Y157000D02*
D03*
X199500D02*
D03*
X229100Y51500D02*
D03*
X248100D02*
D03*
X229100Y73500D02*
D03*
X248100D02*
D03*
D19*
X276100Y150400D02*
D03*
X291100D02*
D03*
X276100Y165400D02*
D03*
X291100D02*
D03*
X276400Y116760D02*
D03*
X291400D02*
D03*
X276400Y130760D02*
D03*
X291400D02*
D03*
X86000Y121000D02*
D03*
X71000D02*
D03*
X86000Y136000D02*
D03*
X71000D02*
D03*
X122500Y370000D02*
D03*
X107500D02*
D03*
X76500Y417000D02*
D03*
X61500D02*
D03*
X76500Y431000D02*
D03*
X61500D02*
D03*
X94500Y103000D02*
D03*
X79500D02*
D03*
X94500Y89000D02*
D03*
X79500D02*
D03*
X43500Y323000D02*
D03*
X28500D02*
D03*
X117500Y177100D02*
D03*
X102500D02*
D03*
X537000Y303500D02*
D03*
X552000D02*
D03*
X83500Y466000D02*
D03*
X68500D02*
D03*
X233723Y153600D02*
D03*
X218723D02*
D03*
X494500Y346000D02*
D03*
X479500D02*
D03*
X450500D02*
D03*
X465500D02*
D03*
X460500Y401000D02*
D03*
X445500D02*
D03*
X307500Y433000D02*
D03*
X322500D02*
D03*
X460500Y415000D02*
D03*
X445500D02*
D03*
X307500Y448000D02*
D03*
X322500D02*
D03*
X307460Y418000D02*
D03*
X322460D02*
D03*
X460500Y430000D02*
D03*
X445500D02*
D03*
D20*
X14000Y321500D02*
D03*
Y306500D02*
D03*
X146000Y143500D02*
D03*
Y128500D02*
D03*
X145880Y99500D02*
D03*
Y114500D02*
D03*
X142000Y374500D02*
D03*
Y359500D02*
D03*
X157000Y374500D02*
D03*
Y359500D02*
D03*
X502000Y293000D02*
D03*
Y308000D02*
D03*
D21*
X333892Y135400D02*
D03*
X309508D02*
D03*
Y152400D02*
D03*
X333892D02*
D03*
X335192Y101440D02*
D03*
X310808D02*
D03*
Y118440D02*
D03*
X335192D02*
D03*
X102808Y137000D02*
D03*
X127192D02*
D03*
X102808Y120000D02*
D03*
X127192D02*
D03*
X446808Y362000D02*
D03*
X471192D02*
D03*
D22*
X48000Y24000D02*
D03*
X80000D02*
D03*
D23*
X61000Y241000D02*
D03*
Y209000D02*
D03*
X237000Y133000D02*
D03*
Y101000D02*
D03*
D24*
X446200Y324400D02*
D03*
X438200D02*
D03*
X462200D02*
D03*
X334200D02*
D03*
X350200D02*
D03*
X358200D02*
D03*
X366200D02*
D03*
X374200D02*
D03*
X390200D02*
D03*
X398200D02*
D03*
X422200D02*
D03*
X430200D02*
D03*
X470200D02*
D03*
X326200Y316400D02*
D03*
X334200D02*
D03*
X342200D02*
D03*
X350200D02*
D03*
X358200D02*
D03*
X366200D02*
D03*
X374200D02*
D03*
X382200D02*
D03*
X390200D02*
D03*
X398200D02*
D03*
X406200D02*
D03*
X414200D02*
D03*
X422200D02*
D03*
X430200D02*
D03*
X438200D02*
D03*
X446200D02*
D03*
X454200D02*
D03*
X462200D02*
D03*
X470200D02*
D03*
X478200D02*
D03*
X326200Y308400D02*
D03*
X334200D02*
D03*
X342200D02*
D03*
X350200D02*
D03*
X358200D02*
D03*
X366200D02*
D03*
X374200D02*
D03*
X382200D02*
D03*
X390200D02*
D03*
X398200D02*
D03*
X406200D02*
D03*
X414200D02*
D03*
X422200D02*
D03*
X430200D02*
D03*
X438200D02*
D03*
X446200D02*
D03*
X454200D02*
D03*
X462200D02*
D03*
X470200D02*
D03*
X478200D02*
D03*
X326200Y300400D02*
D03*
X334200D02*
D03*
X342200D02*
D03*
X350200D02*
D03*
X358200D02*
D03*
X366200D02*
D03*
X374200D02*
D03*
X382200D02*
D03*
X390200D02*
D03*
X398200D02*
D03*
X406200D02*
D03*
X414200D02*
D03*
X422200D02*
D03*
X430200D02*
D03*
X438200D02*
D03*
X446200D02*
D03*
X454200D02*
D03*
X462200D02*
D03*
X470200D02*
D03*
X478200D02*
D03*
X326200Y292400D02*
D03*
X334200D02*
D03*
X342200D02*
D03*
X350200D02*
D03*
X358200D02*
D03*
X366200D02*
D03*
X374200D02*
D03*
X382200D02*
D03*
X390200D02*
D03*
X398200D02*
D03*
X406200D02*
D03*
X414200D02*
D03*
X422200D02*
D03*
X430200D02*
D03*
X438200D02*
D03*
X446200D02*
D03*
X454200D02*
D03*
X462200D02*
D03*
X470200D02*
D03*
X478200D02*
D03*
X326200Y284400D02*
D03*
X334200D02*
D03*
X342200D02*
D03*
X350200D02*
D03*
X358200D02*
D03*
X446200D02*
D03*
X454200D02*
D03*
X462200D02*
D03*
X470200D02*
D03*
X478200D02*
D03*
X326200Y276400D02*
D03*
X334200D02*
D03*
X342200D02*
D03*
X350200D02*
D03*
X358200D02*
D03*
X366200D02*
D03*
X374200D02*
D03*
X382200D02*
D03*
X390200D02*
D03*
X398200D02*
D03*
X406200D02*
D03*
X414200D02*
D03*
X422200D02*
D03*
X430200D02*
D03*
X438200D02*
D03*
X446200D02*
D03*
X454200D02*
D03*
X462200D02*
D03*
X470200D02*
D03*
X478200D02*
D03*
X326200Y268400D02*
D03*
X334200D02*
D03*
X342200D02*
D03*
X350200D02*
D03*
X358200D02*
D03*
X366200D02*
D03*
X374200D02*
D03*
X382200D02*
D03*
X390200D02*
D03*
X398200D02*
D03*
X406200D02*
D03*
X414200D02*
D03*
X422200D02*
D03*
X430200D02*
D03*
X438200D02*
D03*
X446200D02*
D03*
X454200D02*
D03*
X462200D02*
D03*
X470200D02*
D03*
X478200D02*
D03*
X326200Y260400D02*
D03*
X334200D02*
D03*
X342200D02*
D03*
X350200D02*
D03*
X358200D02*
D03*
X366200D02*
D03*
X374200D02*
D03*
X382200D02*
D03*
X390200D02*
D03*
X398200D02*
D03*
X406200D02*
D03*
X414200D02*
D03*
X422200D02*
D03*
X430200D02*
D03*
X438200D02*
D03*
X446200D02*
D03*
X454200D02*
D03*
X462200D02*
D03*
X470200D02*
D03*
X478200D02*
D03*
X326200Y252400D02*
D03*
X334200D02*
D03*
X342200D02*
D03*
X350200D02*
D03*
X358200D02*
D03*
X366200D02*
D03*
X374200D02*
D03*
X382200D02*
D03*
X390200D02*
D03*
X398200D02*
D03*
X406200D02*
D03*
X414200D02*
D03*
X422200D02*
D03*
X430200D02*
D03*
X438200D02*
D03*
X446200D02*
D03*
X454200D02*
D03*
X462200D02*
D03*
X470200D02*
D03*
X478200D02*
D03*
X326200Y244400D02*
D03*
X334200D02*
D03*
X342200D02*
D03*
X350200D02*
D03*
X358200D02*
D03*
X366200D02*
D03*
X374200D02*
D03*
X382200D02*
D03*
X390200D02*
D03*
X398200D02*
D03*
X406200D02*
D03*
X414200D02*
D03*
X422200D02*
D03*
X430200D02*
D03*
X438200D02*
D03*
X446200D02*
D03*
X454200D02*
D03*
X462200D02*
D03*
X470200D02*
D03*
X478200D02*
D03*
X326200Y236400D02*
D03*
X334200D02*
D03*
X342200D02*
D03*
X350200D02*
D03*
X358200D02*
D03*
X366200D02*
D03*
X374200D02*
D03*
X382200D02*
D03*
X390200D02*
D03*
X398200D02*
D03*
X406200D02*
D03*
X414200D02*
D03*
X422200D02*
D03*
X430200D02*
D03*
X438200D02*
D03*
X446200D02*
D03*
X454200D02*
D03*
X462200D02*
D03*
X470200D02*
D03*
X478200D02*
D03*
X326200Y228400D02*
D03*
X334200D02*
D03*
X342200D02*
D03*
X350200D02*
D03*
X358200D02*
D03*
X366200D02*
D03*
X374200D02*
D03*
X382200D02*
D03*
X390200D02*
D03*
X398200D02*
D03*
X406200D02*
D03*
X414200D02*
D03*
X422200D02*
D03*
X430200D02*
D03*
X438200D02*
D03*
X446200D02*
D03*
X454200D02*
D03*
X462200D02*
D03*
X470200D02*
D03*
X478200D02*
D03*
X326200Y220400D02*
D03*
X334200D02*
D03*
X342200D02*
D03*
X350200D02*
D03*
X358200D02*
D03*
X366200D02*
D03*
X374200D02*
D03*
X382200D02*
D03*
X390200D02*
D03*
X398200D02*
D03*
X406200D02*
D03*
X414200D02*
D03*
X422200D02*
D03*
X430200D02*
D03*
X438200D02*
D03*
X446200D02*
D03*
X454200D02*
D03*
X462200D02*
D03*
X470200D02*
D03*
X478200D02*
D03*
X326200Y212400D02*
D03*
X334200D02*
D03*
X342200D02*
D03*
X350200D02*
D03*
X358200D02*
D03*
X366200D02*
D03*
X374200D02*
D03*
X382200D02*
D03*
X390200D02*
D03*
X398200D02*
D03*
X406200D02*
D03*
X414200D02*
D03*
X422200D02*
D03*
X430200D02*
D03*
X438200D02*
D03*
X446200D02*
D03*
X454200D02*
D03*
X462200D02*
D03*
X470200D02*
D03*
X478200D02*
D03*
X326200Y204400D02*
D03*
X334200D02*
D03*
X342200D02*
D03*
X350200D02*
D03*
X358200D02*
D03*
X366200D02*
D03*
X374200D02*
D03*
X382200D02*
D03*
X390200D02*
D03*
X398200D02*
D03*
X406200D02*
D03*
X414200D02*
D03*
X422200D02*
D03*
X430200D02*
D03*
X438200D02*
D03*
X446200D02*
D03*
X454200D02*
D03*
X462200D02*
D03*
X470200D02*
D03*
X478200D02*
D03*
X326200Y196400D02*
D03*
X334200D02*
D03*
X342200D02*
D03*
X350200D02*
D03*
X358200D02*
D03*
X366200D02*
D03*
X374200D02*
D03*
X382200D02*
D03*
X390200D02*
D03*
X398200D02*
D03*
X406200D02*
D03*
X414200D02*
D03*
X422200D02*
D03*
X430200D02*
D03*
X438200D02*
D03*
X446200D02*
D03*
X454200D02*
D03*
X462200D02*
D03*
X470200D02*
D03*
X478200D02*
D03*
X326200Y188400D02*
D03*
X334200D02*
D03*
X342200D02*
D03*
X350200D02*
D03*
X358200D02*
D03*
X366200D02*
D03*
X374200D02*
D03*
X382200D02*
D03*
X390200D02*
D03*
X398200D02*
D03*
X406200D02*
D03*
X414200D02*
D03*
X422200D02*
D03*
X430200D02*
D03*
X438200D02*
D03*
X446200D02*
D03*
X454200D02*
D03*
X462200D02*
D03*
X470200D02*
D03*
X478200D02*
D03*
X326200Y180400D02*
D03*
X334200D02*
D03*
X342200D02*
D03*
X350200D02*
D03*
X358200D02*
D03*
X366200D02*
D03*
X374200D02*
D03*
X382200D02*
D03*
X390200D02*
D03*
X398200D02*
D03*
X406200D02*
D03*
X414200D02*
D03*
X422200D02*
D03*
X430200D02*
D03*
X438200D02*
D03*
X446200D02*
D03*
X454200D02*
D03*
X462200D02*
D03*
X470200D02*
D03*
X478200D02*
D03*
X334200Y172400D02*
D03*
X342200D02*
D03*
X350200D02*
D03*
X358200D02*
D03*
X366200D02*
D03*
X374200D02*
D03*
X382200D02*
D03*
X390200D02*
D03*
X398200D02*
D03*
X406200D02*
D03*
X414200D02*
D03*
X422200D02*
D03*
X430200D02*
D03*
X438200D02*
D03*
X446200D02*
D03*
X454200D02*
D03*
X462200D02*
D03*
X470200D02*
D03*
D25*
X527000Y251000D02*
D03*
Y240000D02*
D03*
Y229000D02*
D03*
Y218000D02*
D03*
Y207000D02*
D03*
Y196000D02*
D03*
Y185000D02*
D03*
Y174000D02*
D03*
Y164500D02*
D03*
D26*
Y266502D02*
D03*
D27*
X678000Y290002D02*
D03*
D28*
X673502Y155001D02*
D03*
D29*
X632001D02*
D03*
D30*
X570000D02*
D03*
D31*
X42750Y123500D02*
D03*
Y130000D02*
D03*
Y136500D02*
D03*
Y143000D02*
D03*
Y149500D02*
D03*
X43000Y410500D02*
D03*
Y417000D02*
D03*
Y423500D02*
D03*
Y430000D02*
D03*
Y436500D02*
D03*
D32*
X48500Y68500D02*
D03*
Y59000D02*
D03*
Y49500D02*
D03*
X74500D02*
D03*
Y68500D02*
D03*
X206000Y114500D02*
D03*
Y124000D02*
D03*
Y133500D02*
D03*
X180000D02*
D03*
Y114500D02*
D03*
D33*
X18500Y287000D02*
D03*
X37500D02*
D03*
Y261000D02*
D03*
X28000D02*
D03*
X18500D02*
D03*
D34*
X158580Y450120D02*
D03*
X152220D02*
D03*
X145880D02*
D03*
X139520D02*
D03*
X133180D02*
D03*
X126820D02*
D03*
X120480D02*
D03*
X114120D02*
D03*
X107780D02*
D03*
X101420D02*
D03*
Y395880D02*
D03*
X107780D02*
D03*
X114120D02*
D03*
X120480D02*
D03*
X126820D02*
D03*
X133180D02*
D03*
X139520D02*
D03*
X145880D02*
D03*
X152220D02*
D03*
X158580D02*
D03*
D35*
X419320Y404950D02*
D03*
Y417650D02*
D03*
Y430350D02*
D03*
Y443050D02*
D03*
X348680D02*
D03*
Y430350D02*
D03*
Y417650D02*
D03*
Y404950D02*
D03*
D36*
X298000Y195720D02*
D03*
X290000D02*
D03*
X282000D02*
D03*
X274000D02*
D03*
X266000D02*
D03*
X258000D02*
D03*
X250000D02*
D03*
X242000D02*
D03*
X234000D02*
D03*
X226000D02*
D03*
X218000D02*
D03*
X210000D02*
D03*
X202000D02*
D03*
X194000D02*
D03*
X186000D02*
D03*
X178000D02*
D03*
X170000D02*
D03*
X162000D02*
D03*
X154000D02*
D03*
X146000D02*
D03*
X138000D02*
D03*
X130000D02*
D03*
X122000D02*
D03*
X114000D02*
D03*
X106000D02*
D03*
X98000D02*
D03*
X90000D02*
D03*
Y310280D02*
D03*
X98000D02*
D03*
X106000D02*
D03*
X114000D02*
D03*
X122000D02*
D03*
X130000D02*
D03*
X138000D02*
D03*
X146000D02*
D03*
X154000D02*
D03*
X162000D02*
D03*
X170000D02*
D03*
X178000D02*
D03*
X186000D02*
D03*
X194000D02*
D03*
X202000D02*
D03*
X210000D02*
D03*
X218000D02*
D03*
X226000D02*
D03*
X234000D02*
D03*
X242000D02*
D03*
X250000D02*
D03*
X258000D02*
D03*
X266000D02*
D03*
X274000D02*
D03*
X282000D02*
D03*
X290000D02*
D03*
X298000D02*
D03*
D37*
X506000Y82600D02*
D03*
X550000D02*
D03*
X506000Y133400D02*
D03*
X550000D02*
D03*
M02*
