G04*
G04 #@! TF.GenerationSoftware,Altium Limited,Altium Designer,18.1.9 (240)*
G04*
G04 Layer_Physical_Order=3*
G04 Layer_Color=16440176*
%FSLAX44Y44*%
%MOMM*%
G71*
G01*
G75*
%ADD80C,1.9000*%
%ADD81R,1.9000X1.9000*%
%ADD84C,1.7000*%
%ADD87R,1.6000X2.0000*%
%ADD89C,0.4500*%
G36*
X680500Y527300D02*
Y390956D01*
X679392Y390335D01*
X678406Y390939D01*
X672656Y393321D01*
X666605Y394774D01*
X660400Y395262D01*
X654195Y394774D01*
X648144Y393321D01*
X642394Y390939D01*
X637087Y387687D01*
X632355Y383646D01*
X628312Y378913D01*
X625061Y373606D01*
X622679Y367856D01*
X621226Y361805D01*
X620738Y355600D01*
X621226Y349395D01*
X622679Y343344D01*
X625061Y337594D01*
X628312Y332287D01*
X632355Y327555D01*
X637087Y323512D01*
X642394Y320261D01*
X648144Y317879D01*
X654195Y316426D01*
X660400Y315938D01*
X666605Y316426D01*
X672656Y317879D01*
X678406Y320261D01*
X679392Y320865D01*
X680500Y320244D01*
Y125637D01*
X679392Y125016D01*
X676906Y126539D01*
X671156Y128921D01*
X665105Y130374D01*
X658900Y130862D01*
X652695Y130374D01*
X646644Y128921D01*
X640894Y126539D01*
X635587Y123287D01*
X630854Y119246D01*
X626813Y114513D01*
X623561Y109206D01*
X621179Y103456D01*
X619726Y97405D01*
X619238Y91200D01*
X619726Y84995D01*
X621179Y78944D01*
X623561Y73194D01*
X626813Y67887D01*
X630854Y63155D01*
X635587Y59113D01*
X640894Y55861D01*
X646644Y53479D01*
X652695Y52026D01*
X658900Y51538D01*
X665105Y52026D01*
X671156Y53479D01*
X676906Y55861D01*
X679392Y57384D01*
X680500Y56763D01*
Y5100D01*
X174933D01*
X174313Y6208D01*
X175039Y7394D01*
X177421Y13144D01*
X178874Y19195D01*
X179362Y25400D01*
X178874Y31605D01*
X177421Y37656D01*
X175039Y43406D01*
X171787Y48713D01*
X167745Y53446D01*
X163013Y57488D01*
X157706Y60739D01*
X151956Y63121D01*
X145905Y64574D01*
X139700Y65062D01*
X133495Y64574D01*
X127444Y63121D01*
X121694Y60739D01*
X116387Y57488D01*
X111655Y53446D01*
X107612Y48713D01*
X104361Y43406D01*
X101979Y37656D01*
X100526Y31605D01*
X100038Y25400D01*
X100526Y19195D01*
X101979Y13144D01*
X104361Y7394D01*
X105087Y6208D01*
X104467Y5100D01*
X5400D01*
X5200Y5183D01*
X5185Y85691D01*
X5282Y85725D01*
X6454Y85977D01*
X8044Y84757D01*
X10049Y83927D01*
X12200Y83644D01*
X19800D01*
X21951Y83927D01*
X23956Y84757D01*
X25677Y86078D01*
X26998Y87799D01*
X27828Y89804D01*
X28111Y91955D01*
Y104805D01*
X27828Y106956D01*
X26998Y108961D01*
X25677Y110682D01*
X23956Y112003D01*
X21951Y112833D01*
X19800Y113116D01*
X12200D01*
X10049Y112833D01*
X8044Y112003D01*
X6450Y110779D01*
X5352Y111012D01*
X5180Y111070D01*
X5178Y117787D01*
X6356Y118552D01*
X6448Y118541D01*
X7447Y117047D01*
X9031Y115988D01*
X10900Y115616D01*
X12769Y115988D01*
X14353Y117047D01*
X15412Y118631D01*
X15784Y120500D01*
X15412Y122369D01*
X15163Y122741D01*
X16079Y123657D01*
X16631Y123288D01*
X18500Y122916D01*
X20369Y123288D01*
X21953Y124347D01*
X23012Y125931D01*
X23384Y127800D01*
X23012Y129669D01*
X21953Y131253D01*
X20369Y132312D01*
X18500Y132684D01*
X16631Y132312D01*
X15047Y131253D01*
X13988Y129669D01*
X13616Y127800D01*
X13988Y125931D01*
X14237Y125559D01*
X13321Y124643D01*
X12769Y125012D01*
X10900Y125384D01*
X9031Y125012D01*
X7447Y123953D01*
X6447Y122458D01*
X6355Y122446D01*
X5177Y123208D01*
X5170Y161927D01*
X5483Y162033D01*
X6440Y162229D01*
X8044Y160997D01*
X10049Y160167D01*
X12200Y159884D01*
X19800D01*
X21951Y160167D01*
X23956Y160997D01*
X25677Y162318D01*
X26998Y164039D01*
X27828Y166044D01*
X28111Y168195D01*
Y181045D01*
X27828Y183196D01*
X26998Y185201D01*
X25677Y186922D01*
X23956Y188243D01*
X21951Y189073D01*
X19800Y189356D01*
X12200D01*
X10049Y189073D01*
X8044Y188243D01*
X6435Y187008D01*
X5541Y187187D01*
X5165Y187315D01*
X5130Y372873D01*
X6400Y373304D01*
X6573Y373078D01*
X8294Y371757D01*
X10299Y370927D01*
X12450Y370644D01*
X20050D01*
X22201Y370927D01*
X24206Y371757D01*
X25927Y373078D01*
X27248Y374799D01*
X28078Y376804D01*
X28361Y378955D01*
Y391805D01*
X28078Y393956D01*
X27248Y395961D01*
X25927Y397682D01*
X24206Y399003D01*
X22201Y399833D01*
X20050Y400116D01*
X12450D01*
X10299Y399833D01*
X8294Y399003D01*
X6573Y397682D01*
X6395Y397450D01*
X5125Y397881D01*
X5115Y449132D01*
X6385Y449563D01*
X6573Y449318D01*
X8294Y447997D01*
X10299Y447167D01*
X12450Y446884D01*
X20050D01*
X22201Y447167D01*
X24206Y447997D01*
X25927Y449318D01*
X27248Y451040D01*
X28078Y453044D01*
X28361Y455195D01*
Y468045D01*
X28078Y470196D01*
X27248Y472201D01*
X25927Y473922D01*
X24206Y475243D01*
X22201Y476073D01*
X20050Y476356D01*
X12450D01*
X10299Y476073D01*
X8294Y475243D01*
X6573Y473922D01*
X6380Y473671D01*
X5110Y474102D01*
X5100Y527402D01*
X5998Y528300D01*
X91767D01*
X92387Y527192D01*
X91661Y526006D01*
X89279Y520256D01*
X87826Y514205D01*
X87338Y508000D01*
X87826Y501795D01*
X89279Y495744D01*
X91661Y489994D01*
X94913Y484687D01*
X98954Y479954D01*
X103687Y475913D01*
X108994Y472661D01*
X114744Y470279D01*
X120795Y468826D01*
X127000Y468338D01*
X133205Y468826D01*
X139256Y470279D01*
X145006Y472661D01*
X150313Y475913D01*
X155045Y479954D01*
X159087Y484687D01*
X162339Y489994D01*
X164721Y495744D01*
X166174Y501795D01*
X166662Y508000D01*
X166174Y514205D01*
X164721Y520256D01*
X162339Y526006D01*
X161613Y527192D01*
X162233Y528300D01*
X679500D01*
X680500Y527300D01*
D02*
G37*
%LPC*%
G36*
X645540Y520540D02*
X624460D01*
Y495460D01*
X645540D01*
Y520540D01*
D02*
G37*
G36*
X609600Y520631D02*
X606848Y520269D01*
X604285Y519207D01*
X602083Y517517D01*
X600393Y515316D01*
X599331Y512752D01*
X598969Y510000D01*
Y506000D01*
X599331Y503248D01*
X600393Y500685D01*
X602083Y498483D01*
X604285Y496793D01*
X606848Y495731D01*
X609600Y495369D01*
X612351Y495731D01*
X614916Y496793D01*
X617117Y498483D01*
X618807Y500685D01*
X619869Y503248D01*
X620231Y506000D01*
Y510000D01*
X619869Y512752D01*
X618807Y515316D01*
X617117Y517517D01*
X614916Y519207D01*
X612351Y520269D01*
X609600Y520631D01*
D02*
G37*
G36*
X584200D02*
X581449Y520269D01*
X578885Y519207D01*
X576683Y517517D01*
X574993Y515316D01*
X573931Y512752D01*
X573569Y510000D01*
Y506000D01*
X573931Y503248D01*
X574993Y500685D01*
X576683Y498483D01*
X578885Y496793D01*
X581449Y495731D01*
X584200Y495369D01*
X586951Y495731D01*
X589515Y496793D01*
X591717Y498483D01*
X593407Y500685D01*
X594469Y503248D01*
X594831Y506000D01*
Y510000D01*
X594469Y512752D01*
X593407Y515316D01*
X591717Y517517D01*
X589515Y519207D01*
X586951Y520269D01*
X584200Y520631D01*
D02*
G37*
G36*
X558800D02*
X556049Y520269D01*
X553484Y519207D01*
X551283Y517517D01*
X549593Y515316D01*
X548531Y512752D01*
X548169Y510000D01*
Y506000D01*
X548531Y503248D01*
X549593Y500685D01*
X551283Y498483D01*
X553484Y496793D01*
X556049Y495731D01*
X558800Y495369D01*
X561552Y495731D01*
X564115Y496793D01*
X566317Y498483D01*
X568007Y500685D01*
X569069Y503248D01*
X569431Y506000D01*
Y510000D01*
X569069Y512752D01*
X568007Y515316D01*
X566317Y517517D01*
X564115Y519207D01*
X561552Y520269D01*
X558800Y520631D01*
D02*
G37*
G36*
X533400D02*
X530648Y520269D01*
X528084Y519207D01*
X525883Y517517D01*
X524193Y515316D01*
X523131Y512752D01*
X522769Y510000D01*
Y506000D01*
X523131Y503248D01*
X524193Y500685D01*
X525883Y498483D01*
X528084Y496793D01*
X530648Y495731D01*
X533400Y495369D01*
X536152Y495731D01*
X538716Y496793D01*
X540917Y498483D01*
X542607Y500685D01*
X543669Y503248D01*
X544031Y506000D01*
Y510000D01*
X543669Y512752D01*
X542607Y515316D01*
X540917Y517517D01*
X538716Y519207D01*
X536152Y520269D01*
X533400Y520631D01*
D02*
G37*
G36*
X508000D02*
X505248Y520269D01*
X502685Y519207D01*
X500483Y517517D01*
X498793Y515316D01*
X497731Y512752D01*
X497369Y510000D01*
Y506000D01*
X497731Y503248D01*
X498793Y500685D01*
X500483Y498483D01*
X502685Y496793D01*
X505248Y495731D01*
X508000Y495369D01*
X510751Y495731D01*
X513316Y496793D01*
X515517Y498483D01*
X517207Y500685D01*
X518269Y503248D01*
X518631Y506000D01*
Y510000D01*
X518269Y512752D01*
X517207Y515316D01*
X515517Y517517D01*
X513316Y519207D01*
X510751Y520269D01*
X508000Y520631D01*
D02*
G37*
G36*
X391160D02*
X388409Y520269D01*
X385844Y519207D01*
X383643Y517517D01*
X381953Y515316D01*
X380891Y512752D01*
X380529Y510000D01*
Y506000D01*
X380891Y503248D01*
X381953Y500685D01*
X383643Y498483D01*
X385844Y496793D01*
X388409Y495731D01*
X391160Y495369D01*
X393912Y495731D01*
X396475Y496793D01*
X398677Y498483D01*
X400367Y500685D01*
X401429Y503248D01*
X401791Y506000D01*
Y510000D01*
X401429Y512752D01*
X400367Y515316D01*
X398677Y517517D01*
X396475Y519207D01*
X393912Y520269D01*
X391160Y520631D01*
D02*
G37*
G36*
X365760D02*
X363008Y520269D01*
X360444Y519207D01*
X358243Y517517D01*
X356553Y515316D01*
X355491Y512752D01*
X355129Y510000D01*
Y506000D01*
X355491Y503248D01*
X356553Y500685D01*
X358243Y498483D01*
X360444Y496793D01*
X363008Y495731D01*
X365760Y495369D01*
X368512Y495731D01*
X371076Y496793D01*
X373277Y498483D01*
X374967Y500685D01*
X376029Y503248D01*
X376391Y506000D01*
Y510000D01*
X376029Y512752D01*
X374967Y515316D01*
X373277Y517517D01*
X371076Y519207D01*
X368512Y520269D01*
X365760Y520631D01*
D02*
G37*
G36*
X340360D02*
X337608Y520269D01*
X335045Y519207D01*
X332843Y517517D01*
X331153Y515316D01*
X330091Y512752D01*
X329729Y510000D01*
Y506000D01*
X330091Y503248D01*
X331153Y500685D01*
X332843Y498483D01*
X335045Y496793D01*
X337608Y495731D01*
X340360Y495369D01*
X343111Y495731D01*
X345676Y496793D01*
X347877Y498483D01*
X349567Y500685D01*
X350629Y503248D01*
X350991Y506000D01*
Y510000D01*
X350629Y512752D01*
X349567Y515316D01*
X347877Y517517D01*
X345676Y519207D01*
X343111Y520269D01*
X340360Y520631D01*
D02*
G37*
G36*
X314960D02*
X312208Y520269D01*
X309645Y519207D01*
X307443Y517517D01*
X305753Y515316D01*
X304691Y512752D01*
X304329Y510000D01*
Y506000D01*
X304691Y503248D01*
X305753Y500685D01*
X307443Y498483D01*
X309645Y496793D01*
X312208Y495731D01*
X314960Y495369D01*
X317712Y495731D01*
X320275Y496793D01*
X322477Y498483D01*
X324167Y500685D01*
X325229Y503248D01*
X325591Y506000D01*
Y510000D01*
X325229Y512752D01*
X324167Y515316D01*
X322477Y517517D01*
X320275Y519207D01*
X317712Y520269D01*
X314960Y520631D01*
D02*
G37*
G36*
X289560D02*
X286808Y520269D01*
X284244Y519207D01*
X282043Y517517D01*
X280353Y515316D01*
X279291Y512752D01*
X278929Y510000D01*
Y506000D01*
X279291Y503248D01*
X280353Y500685D01*
X282043Y498483D01*
X284244Y496793D01*
X286808Y495731D01*
X289560Y495369D01*
X292311Y495731D01*
X294876Y496793D01*
X297077Y498483D01*
X298767Y500685D01*
X299829Y503248D01*
X300191Y506000D01*
Y510000D01*
X299829Y512752D01*
X298767Y515316D01*
X297077Y517517D01*
X294876Y519207D01*
X292311Y520269D01*
X289560Y520631D01*
D02*
G37*
G36*
X264160D02*
X261409Y520269D01*
X258845Y519207D01*
X256643Y517517D01*
X254953Y515316D01*
X253891Y512752D01*
X253529Y510000D01*
Y506000D01*
X253891Y503248D01*
X254953Y500685D01*
X256643Y498483D01*
X258845Y496793D01*
X261409Y495731D01*
X264160Y495369D01*
X266912Y495731D01*
X269475Y496793D01*
X271677Y498483D01*
X273367Y500685D01*
X274429Y503248D01*
X274791Y506000D01*
Y510000D01*
X274429Y512752D01*
X273367Y515316D01*
X271677Y517517D01*
X269475Y519207D01*
X266912Y520269D01*
X264160Y520631D01*
D02*
G37*
G36*
X238760D02*
X236008Y520269D01*
X233444Y519207D01*
X231243Y517517D01*
X229553Y515316D01*
X228491Y512752D01*
X228129Y510000D01*
Y506000D01*
X228491Y503248D01*
X229553Y500685D01*
X231243Y498483D01*
X233444Y496793D01*
X236008Y495731D01*
X238760Y495369D01*
X241511Y495731D01*
X244076Y496793D01*
X246277Y498483D01*
X247967Y500685D01*
X249029Y503248D01*
X249391Y506000D01*
Y510000D01*
X249029Y512752D01*
X247967Y515316D01*
X246277Y517517D01*
X244076Y519207D01*
X241511Y520269D01*
X238760Y520631D01*
D02*
G37*
G36*
X82000Y495384D02*
X80131Y495012D01*
X78547Y493953D01*
X77488Y492369D01*
X77116Y490500D01*
X77488Y488631D01*
X78547Y487047D01*
X80131Y485988D01*
X82000Y485616D01*
X83869Y485988D01*
X85453Y487047D01*
X86512Y488631D01*
X86884Y490500D01*
X86512Y492369D01*
X85453Y493953D01*
X83869Y495012D01*
X82000Y495384D01*
D02*
G37*
G36*
X202900Y493884D02*
X201031Y493512D01*
X199447Y492453D01*
X198388Y490869D01*
X198016Y489000D01*
X198388Y487131D01*
X199447Y485547D01*
X201031Y484488D01*
X202900Y484116D01*
X204769Y484488D01*
X206353Y485547D01*
X207412Y487131D01*
X207784Y489000D01*
X207412Y490869D01*
X206353Y492453D01*
X204769Y493512D01*
X202900Y493884D01*
D02*
G37*
G36*
X184800Y481884D02*
X182931Y481512D01*
X181347Y480453D01*
X180513Y479206D01*
X179402Y479047D01*
X179044Y479119D01*
X178753Y479553D01*
X177169Y480612D01*
X175300Y480984D01*
X173431Y480612D01*
X171847Y479553D01*
X170788Y477969D01*
X170416Y476100D01*
X170788Y474231D01*
X171847Y472647D01*
X173431Y471588D01*
X175300Y471216D01*
X177169Y471588D01*
X178753Y472647D01*
X179587Y473894D01*
X180698Y474053D01*
X181056Y473981D01*
X181347Y473547D01*
X182931Y472488D01*
X184800Y472116D01*
X186669Y472488D01*
X188253Y473547D01*
X189312Y475131D01*
X189684Y477000D01*
X189312Y478869D01*
X188253Y480453D01*
X186669Y481512D01*
X184800Y481884D01*
D02*
G37*
G36*
X280700Y452484D02*
X278831Y452112D01*
X277247Y451053D01*
X276188Y449469D01*
X275816Y447600D01*
X276188Y445731D01*
X277247Y444147D01*
X278831Y443088D01*
X280700Y442716D01*
X282569Y443088D01*
X284153Y444147D01*
X285212Y445731D01*
X285584Y447600D01*
X285212Y449469D01*
X284153Y451053D01*
X282569Y452112D01*
X280700Y452484D01*
D02*
G37*
G36*
X47880Y453852D02*
X44620D01*
X42751Y453606D01*
X41009Y452884D01*
X39513Y451736D01*
X38366Y450241D01*
X37644Y448499D01*
X37398Y446630D01*
Y444870D01*
X37644Y443001D01*
X38366Y441259D01*
X39513Y439763D01*
X41009Y438616D01*
X42751Y437894D01*
X44620Y437648D01*
X47880D01*
X49749Y437894D01*
X51491Y438616D01*
X52986Y439763D01*
X53755Y440765D01*
X54066Y440832D01*
X55162Y440715D01*
X55219Y440685D01*
X56047Y439447D01*
X57631Y438388D01*
X59500Y438016D01*
X61369Y438388D01*
X62953Y439447D01*
X64012Y441031D01*
X64384Y442900D01*
X64012Y444769D01*
X62953Y446353D01*
X61369Y447412D01*
X59500Y447784D01*
X57631Y447412D01*
X56372Y446571D01*
X56100Y446583D01*
X55338Y446874D01*
X55041Y447093D01*
X54856Y448499D01*
X54134Y450241D01*
X52986Y451736D01*
X51491Y452884D01*
X49749Y453606D01*
X47880Y453852D01*
D02*
G37*
G36*
X436800Y444784D02*
X434931Y444412D01*
X433347Y443353D01*
X432288Y441769D01*
X431916Y439900D01*
X432288Y438031D01*
X433347Y436447D01*
X434931Y435388D01*
X436800Y435016D01*
X438669Y435388D01*
X440253Y436447D01*
X441312Y438031D01*
X441684Y439900D01*
X441312Y441769D01*
X440253Y443353D01*
X438669Y444412D01*
X436800Y444784D01*
D02*
G37*
G36*
X557440Y454040D02*
X535360D01*
Y431960D01*
X557440D01*
Y454040D01*
D02*
G37*
G36*
X521000Y454135D02*
X518118Y453756D01*
X515432Y452643D01*
X513126Y450874D01*
X511357Y448568D01*
X510244Y445882D01*
X509865Y443000D01*
X510244Y440118D01*
X511357Y437432D01*
X513126Y435126D01*
X515432Y433357D01*
X518118Y432244D01*
X521000Y431865D01*
X523882Y432244D01*
X526568Y433357D01*
X528874Y435126D01*
X530643Y437432D01*
X531756Y440118D01*
X532135Y443000D01*
X531756Y445882D01*
X530643Y448568D01*
X528874Y450874D01*
X526568Y452643D01*
X523882Y453756D01*
X521000Y454135D01*
D02*
G37*
G36*
X495600D02*
X492718Y453756D01*
X490032Y452643D01*
X487726Y450874D01*
X485957Y448568D01*
X484844Y445882D01*
X484465Y443000D01*
X484844Y440118D01*
X485957Y437432D01*
X487726Y435126D01*
X490032Y433357D01*
X492718Y432244D01*
X495600Y431865D01*
X498482Y432244D01*
X501168Y433357D01*
X503474Y435126D01*
X505243Y437432D01*
X506356Y440118D01*
X506735Y443000D01*
X506356Y445882D01*
X505243Y448568D01*
X503474Y450874D01*
X501168Y452643D01*
X498482Y453756D01*
X495600Y454135D01*
D02*
G37*
G36*
X145880Y441364D02*
X144011Y440992D01*
X142427Y439933D01*
X141368Y438349D01*
X140996Y436480D01*
X141368Y434611D01*
X142427Y433027D01*
X144011Y431968D01*
X145880Y431596D01*
X147749Y431968D01*
X149333Y433027D01*
X150392Y434611D01*
X150764Y436480D01*
X150392Y438349D01*
X149333Y439933D01*
X147749Y440992D01*
X145880Y441364D01*
D02*
G37*
G36*
X126820Y438804D02*
X124951Y438432D01*
X123367Y437373D01*
X122308Y435789D01*
X121936Y433920D01*
X122308Y432051D01*
X123367Y430467D01*
X124951Y429408D01*
X126820Y429036D01*
X128689Y429408D01*
X130273Y430467D01*
X131332Y432051D01*
X131704Y433920D01*
X131332Y435789D01*
X130273Y437373D01*
X128689Y438432D01*
X126820Y438804D01*
D02*
G37*
G36*
X129900Y415384D02*
X128031Y415012D01*
X126447Y413953D01*
X126388Y413866D01*
X124638Y413532D01*
X124069Y413912D01*
X122200Y414284D01*
X120331Y413912D01*
X119075Y413073D01*
X117573Y413033D01*
X115989Y414092D01*
X114120Y414464D01*
X112251Y414092D01*
X110667Y413033D01*
X109608Y411449D01*
X109236Y409580D01*
X109608Y407711D01*
X110667Y406127D01*
X112251Y405068D01*
X114120Y404696D01*
X115989Y405068D01*
X117245Y405907D01*
X118747Y405947D01*
X120331Y404888D01*
X122200Y404516D01*
X124069Y404888D01*
X125653Y405947D01*
X125712Y406034D01*
X127462Y406368D01*
X128031Y405988D01*
X129900Y405616D01*
X131769Y405988D01*
X133353Y407047D01*
X134412Y408631D01*
X134784Y410500D01*
X134412Y412369D01*
X133353Y413953D01*
X131769Y415012D01*
X129900Y415384D01*
D02*
G37*
G36*
X521000Y428735D02*
X518118Y428356D01*
X515432Y427243D01*
X513126Y425474D01*
X511357Y423168D01*
X510244Y420482D01*
X509865Y417600D01*
X510244Y414718D01*
X511357Y412032D01*
X513126Y409726D01*
X515432Y407957D01*
X518118Y406844D01*
X521000Y406465D01*
X523882Y406844D01*
X526568Y407957D01*
X528874Y409726D01*
X530643Y412032D01*
X531756Y414718D01*
X532135Y417600D01*
X531756Y420482D01*
X530643Y423168D01*
X528874Y425474D01*
X526568Y427243D01*
X523882Y428356D01*
X521000Y428735D01*
D02*
G37*
G36*
X495600D02*
X492718Y428356D01*
X490032Y427243D01*
X487726Y425474D01*
X485957Y423168D01*
X484844Y420482D01*
X484465Y417600D01*
X484844Y414718D01*
X485957Y412032D01*
X487726Y409726D01*
X490032Y407957D01*
X492718Y406844D01*
X495600Y406465D01*
X498482Y406844D01*
X501168Y407957D01*
X503474Y409726D01*
X505243Y412032D01*
X506356Y414718D01*
X506735Y417600D01*
X506356Y420482D01*
X505243Y423168D01*
X503474Y425474D01*
X501168Y427243D01*
X498482Y428356D01*
X495600Y428735D01*
D02*
G37*
G36*
X145880Y415284D02*
X144011Y414912D01*
X142427Y413853D01*
X141368Y412269D01*
X140996Y410400D01*
X141368Y408531D01*
X142427Y406947D01*
X144011Y405888D01*
X145880Y405516D01*
X147749Y405888D01*
X149333Y406947D01*
X150392Y408531D01*
X150764Y410400D01*
X150392Y412269D01*
X149333Y413853D01*
X147749Y414912D01*
X145880Y415284D01*
D02*
G37*
G36*
X158580Y414464D02*
X156711Y414092D01*
X155127Y413033D01*
X154068Y411449D01*
X153696Y409580D01*
X154068Y407711D01*
X155127Y406127D01*
X156711Y405068D01*
X158580Y404696D01*
X160449Y405068D01*
X162033Y406127D01*
X163092Y407711D01*
X163464Y409580D01*
X163092Y411449D01*
X162033Y413033D01*
X160449Y414092D01*
X158580Y414464D01*
D02*
G37*
G36*
X53100Y415384D02*
X51231Y415012D01*
X49647Y413953D01*
X48588Y412369D01*
X48216Y410500D01*
X48220Y410481D01*
X47150Y409352D01*
X44620D01*
X42751Y409106D01*
X41009Y408384D01*
X39513Y407237D01*
X38366Y405741D01*
X37644Y403999D01*
X37398Y402130D01*
Y400370D01*
X37644Y398501D01*
X38366Y396759D01*
X39513Y395263D01*
X41009Y394116D01*
X42751Y393394D01*
X44620Y393148D01*
X47880D01*
X49749Y393394D01*
X51491Y394116D01*
X52986Y395263D01*
X54134Y396759D01*
X54856Y398501D01*
X55102Y400370D01*
Y402130D01*
X54856Y403999D01*
X54599Y404619D01*
X54969Y405988D01*
X55235Y406166D01*
X56553Y407047D01*
X57612Y408631D01*
X57984Y410500D01*
X57612Y412369D01*
X56553Y413953D01*
X54969Y415012D01*
X53100Y415384D01*
D02*
G37*
G36*
X490000Y401884D02*
X488131Y401512D01*
X486547Y400453D01*
X485488Y398869D01*
X485116Y397000D01*
X485488Y395131D01*
X486547Y393547D01*
X487140Y393150D01*
X487508Y391416D01*
X487488Y391386D01*
X487116Y389517D01*
X487488Y387648D01*
X488547Y386064D01*
X490131Y385005D01*
X492000Y384633D01*
X493869Y385005D01*
X495453Y386064D01*
X496512Y387648D01*
X496884Y389517D01*
X496512Y391386D01*
X495453Y392970D01*
X494860Y393367D01*
X494492Y395101D01*
X494512Y395131D01*
X494884Y397000D01*
X494512Y398869D01*
X493453Y400453D01*
X491869Y401512D01*
X490000Y401884D01*
D02*
G37*
G36*
X57000Y382184D02*
X55131Y381812D01*
X53547Y380753D01*
X52847Y379706D01*
X51387Y379616D01*
X51378Y379619D01*
X50753Y380553D01*
X49169Y381612D01*
X47300Y381984D01*
X45431Y381612D01*
X43847Y380553D01*
X42788Y378969D01*
X42416Y377100D01*
X42788Y375231D01*
X43847Y373647D01*
X45431Y372588D01*
X47300Y372216D01*
X49169Y372588D01*
X50753Y373647D01*
X51453Y374694D01*
X52913Y374785D01*
X52922Y374781D01*
X53547Y373847D01*
X55131Y372788D01*
X57000Y372416D01*
X58228Y372660D01*
X58943Y372684D01*
X59605Y371752D01*
X59788Y370831D01*
X60847Y369247D01*
X62431Y368188D01*
X64300Y367816D01*
X66169Y368188D01*
X67637Y369169D01*
X68060Y369313D01*
X69068D01*
X69447Y368747D01*
X71031Y367688D01*
X71820Y367531D01*
X72816Y366786D01*
X72716Y366156D01*
X72466Y364900D01*
X72838Y363031D01*
X73897Y361447D01*
X75481Y360388D01*
X77350Y360016D01*
X79061Y360356D01*
X79219Y360388D01*
X80776Y359901D01*
X81147Y359347D01*
X82731Y358288D01*
X84600Y357916D01*
X86469Y358288D01*
X88053Y359347D01*
X89112Y360931D01*
X89484Y362800D01*
X89443Y363004D01*
X90869Y363288D01*
X92453Y364347D01*
X93512Y365931D01*
X93884Y367800D01*
X93512Y369669D01*
X92453Y371253D01*
X90869Y372312D01*
X89000Y372684D01*
X87131Y372312D01*
X87006Y372229D01*
X85813Y372958D01*
X85512Y374469D01*
X84453Y376053D01*
X82869Y377112D01*
X81000Y377484D01*
X79131Y377112D01*
X77547Y376053D01*
X77522Y376017D01*
X75938Y375931D01*
X74769Y376712D01*
X72900Y377084D01*
X71031Y376712D01*
X69563Y375731D01*
X69140Y375587D01*
X68132D01*
X67753Y376153D01*
X66169Y377212D01*
X64300Y377584D01*
X63072Y377340D01*
X62357Y377316D01*
X61695Y378248D01*
X61512Y379169D01*
X60453Y380753D01*
X58869Y381812D01*
X57000Y382184D01*
D02*
G37*
G36*
X468000Y394884D02*
X466131Y394512D01*
X464547Y393453D01*
X463488Y391869D01*
X463116Y390000D01*
X463488Y388131D01*
X464547Y386547D01*
X464996Y386246D01*
X465153Y384614D01*
X464488Y383619D01*
X464116Y381750D01*
X464488Y379881D01*
X465547Y378297D01*
X467131Y377238D01*
X469000Y376866D01*
X470869Y377238D01*
X472453Y378297D01*
X473512Y379881D01*
X473884Y381750D01*
X473512Y383619D01*
X472453Y385203D01*
X472004Y385504D01*
X471847Y387136D01*
X472512Y388131D01*
X472884Y390000D01*
X472512Y391869D01*
X471453Y393453D01*
X469869Y394512D01*
X468000Y394884D01*
D02*
G37*
G36*
X458900Y377484D02*
X457031Y377112D01*
X455447Y376053D01*
X454388Y374469D01*
X454016Y372600D01*
X454388Y370731D01*
X455447Y369147D01*
X457031Y368088D01*
X458900Y367716D01*
X460769Y368088D01*
X462353Y369147D01*
X463412Y370731D01*
X463784Y372600D01*
X463412Y374469D01*
X462353Y376053D01*
X460769Y377112D01*
X458900Y377484D01*
D02*
G37*
G36*
X148800Y372584D02*
X146931Y372212D01*
X145347Y371153D01*
X144288Y369569D01*
X143916Y367700D01*
X144288Y365831D01*
X145347Y364247D01*
X146931Y363188D01*
X148800Y362816D01*
X150669Y363188D01*
X152253Y364247D01*
X153312Y365831D01*
X153684Y367700D01*
X153312Y369569D01*
X152253Y371153D01*
X150669Y372212D01*
X148800Y372584D01*
D02*
G37*
G36*
X47500Y368284D02*
X45631Y367912D01*
X44047Y366853D01*
X42988Y365269D01*
X42616Y363400D01*
X42988Y361531D01*
X44047Y359947D01*
X45631Y358888D01*
X47500Y358516D01*
X49369Y358888D01*
X50953Y359947D01*
X52012Y361531D01*
X52384Y363400D01*
X52012Y365269D01*
X50953Y366853D01*
X49369Y367912D01*
X47500Y368284D01*
D02*
G37*
G36*
X428900Y367084D02*
X427031Y366712D01*
X425447Y365653D01*
X424388Y364069D01*
X424016Y362200D01*
X424388Y360331D01*
X425447Y358747D01*
X427031Y357688D01*
X428900Y357316D01*
X430769Y357688D01*
X432353Y358747D01*
X433412Y360331D01*
X433784Y362200D01*
X433412Y364069D01*
X432353Y365653D01*
X430769Y366712D01*
X428900Y367084D01*
D02*
G37*
G36*
X20600Y366884D02*
X18731Y366512D01*
X17147Y365453D01*
X16088Y363869D01*
X15716Y362000D01*
X16088Y360131D01*
X17147Y358547D01*
X18731Y357488D01*
X20600Y357116D01*
X22469Y357488D01*
X24053Y358547D01*
X25112Y360131D01*
X25484Y362000D01*
X25112Y363869D01*
X24053Y365453D01*
X22469Y366512D01*
X20600Y366884D01*
D02*
G37*
G36*
X64100Y354884D02*
X62231Y354512D01*
X60647Y353453D01*
X59588Y351869D01*
X59216Y350000D01*
X59588Y348131D01*
X60647Y346547D01*
X62231Y345488D01*
X64100Y345116D01*
X65969Y345488D01*
X67553Y346547D01*
X68612Y348131D01*
X68984Y350000D01*
X68612Y351869D01*
X67553Y353453D01*
X65969Y354512D01*
X64100Y354884D01*
D02*
G37*
G36*
X47500D02*
X45631Y354512D01*
X44047Y353453D01*
X42988Y351869D01*
X42616Y350000D01*
X42988Y348131D01*
X44047Y346547D01*
X45631Y345488D01*
X47500Y345116D01*
X49369Y345488D01*
X50953Y346547D01*
X52012Y348131D01*
X52384Y350000D01*
X52012Y351869D01*
X50953Y353453D01*
X49369Y354512D01*
X47500Y354884D01*
D02*
G37*
G36*
X258000Y349984D02*
X256131Y349612D01*
X254547Y348553D01*
X253488Y346969D01*
X253116Y345100D01*
X253488Y343231D01*
X254547Y341647D01*
X256131Y340588D01*
X258000Y340216D01*
X259869Y340588D01*
X261453Y341647D01*
X262512Y343231D01*
X262884Y345100D01*
X262512Y346969D01*
X261453Y348553D01*
X259869Y349612D01*
X258000Y349984D01*
D02*
G37*
G36*
X289600Y349184D02*
X287731Y348812D01*
X286147Y347753D01*
X285088Y346169D01*
X284716Y344300D01*
X285088Y342431D01*
X286147Y340847D01*
X287731Y339788D01*
X289600Y339416D01*
X291469Y339788D01*
X293053Y340847D01*
X294112Y342431D01*
X294484Y344300D01*
X294112Y346169D01*
X293053Y347753D01*
X291469Y348812D01*
X289600Y349184D01*
D02*
G37*
G36*
X192400Y348884D02*
X190531Y348512D01*
X188947Y347453D01*
X187888Y345869D01*
X187516Y344000D01*
X187888Y342131D01*
X188947Y340547D01*
X190531Y339488D01*
X192400Y339116D01*
X194269Y339488D01*
X195853Y340547D01*
X196912Y342131D01*
X197284Y344000D01*
X196912Y345869D01*
X195853Y347453D01*
X194269Y348512D01*
X192400Y348884D01*
D02*
G37*
G36*
X20200Y344884D02*
X18331Y344512D01*
X16747Y343453D01*
X15688Y341869D01*
X15316Y340000D01*
X15688Y338131D01*
X15987Y337683D01*
X15223Y336540D01*
X14000Y336784D01*
X12131Y336412D01*
X10547Y335353D01*
X9488Y333769D01*
X9116Y331900D01*
X9488Y330031D01*
X10547Y328447D01*
X12131Y327388D01*
X14000Y327016D01*
X15869Y327388D01*
X17453Y328447D01*
X18512Y330031D01*
X18884Y331900D01*
X18512Y333769D01*
X18213Y334216D01*
X18977Y335359D01*
X20200Y335116D01*
X22069Y335488D01*
X23653Y336547D01*
X24712Y338131D01*
X25084Y340000D01*
X24712Y341869D01*
X23653Y343453D01*
X22069Y344512D01*
X20200Y344884D01*
D02*
G37*
G36*
X274000Y327484D02*
X272131Y327112D01*
X270847Y326254D01*
X270000Y326132D01*
X269153Y326254D01*
X267869Y327112D01*
X266000Y327484D01*
X264131Y327112D01*
X262547Y326053D01*
X261488Y324469D01*
X261116Y322600D01*
X261488Y320731D01*
X262547Y319147D01*
X264131Y318088D01*
X266000Y317716D01*
X267869Y318088D01*
X269153Y318946D01*
X270000Y319068D01*
X270847Y318946D01*
X272131Y318088D01*
X274000Y317716D01*
X275869Y318088D01*
X277453Y319147D01*
X278512Y320731D01*
X278884Y322600D01*
X278512Y324469D01*
X277453Y326053D01*
X275869Y327112D01*
X274000Y327484D01*
D02*
G37*
G36*
X250000D02*
X248131Y327112D01*
X246847Y326254D01*
X246000Y326132D01*
X245153Y326254D01*
X243869Y327112D01*
X242000Y327484D01*
X240131Y327112D01*
X238547Y326053D01*
X237488Y324469D01*
X237116Y322600D01*
X237488Y320731D01*
X238547Y319147D01*
X240131Y318088D01*
X242000Y317716D01*
X243869Y318088D01*
X245153Y318946D01*
X246000Y319068D01*
X246847Y318946D01*
X248131Y318088D01*
X250000Y317716D01*
X251869Y318088D01*
X253453Y319147D01*
X254512Y320731D01*
X254884Y322600D01*
X254512Y324469D01*
X253453Y326053D01*
X251869Y327112D01*
X250000Y327484D01*
D02*
G37*
G36*
X159000Y333684D02*
X157131Y333312D01*
X155547Y332253D01*
X154488Y330669D01*
X154116Y328800D01*
X154488Y326931D01*
X155547Y325347D01*
X157131Y324288D01*
X159000Y323916D01*
X160869Y324288D01*
X162453Y325347D01*
X163512Y326931D01*
X163884Y328800D01*
X163512Y330669D01*
X162453Y332253D01*
X160869Y333312D01*
X159000Y333684D01*
D02*
G37*
G36*
X210000Y333984D02*
X208131Y333612D01*
X206547Y332553D01*
X205488Y330969D01*
X205116Y329100D01*
X205488Y327231D01*
X206547Y325647D01*
X208131Y324588D01*
X210000Y324216D01*
X211869Y324588D01*
X212384Y324932D01*
X212400Y324925D01*
X213413Y324092D01*
X213116Y322600D01*
X213488Y320731D01*
X214547Y319147D01*
X216131Y318088D01*
X218000Y317716D01*
X219869Y318088D01*
X221453Y319147D01*
X222547D01*
X224131Y318088D01*
X226000Y317716D01*
X227869Y318088D01*
X229453Y319147D01*
X230512Y320731D01*
X230884Y322600D01*
X230512Y324469D01*
X229453Y326053D01*
X227869Y327112D01*
X226000Y327484D01*
X224131Y327112D01*
X222547Y326053D01*
X221453D01*
X219869Y327112D01*
X218000Y327484D01*
X216131Y327112D01*
X215616Y326768D01*
X215600Y326775D01*
X214587Y327608D01*
X214884Y329100D01*
X214512Y330969D01*
X213453Y332553D01*
X211869Y333612D01*
X210000Y333984D01*
D02*
G37*
G36*
X505200Y326584D02*
X503331Y326212D01*
X501747Y325153D01*
X500688Y323569D01*
X500316Y321700D01*
X500688Y319831D01*
X501747Y318247D01*
X503331Y317188D01*
X505200Y316816D01*
X507069Y317188D01*
X508653Y318247D01*
X509712Y319831D01*
X510084Y321700D01*
X509712Y323569D01*
X508653Y325153D01*
X507069Y326212D01*
X505200Y326584D01*
D02*
G37*
G36*
X386200Y325284D02*
X384331Y324912D01*
X382747Y323853D01*
X381688Y322269D01*
X381316Y320400D01*
X381688Y318531D01*
X382546Y317247D01*
X382571Y317077D01*
X381436Y316042D01*
X381353Y316054D01*
X380069Y316912D01*
X378200Y317284D01*
X376331Y316912D01*
X374747Y315853D01*
X373688Y314269D01*
X373316Y312400D01*
X373688Y310531D01*
X374747Y308947D01*
X376331Y307888D01*
X378200Y307516D01*
X380069Y307888D01*
X381353Y308746D01*
X382200Y308868D01*
X383047Y308746D01*
X384331Y307888D01*
X386200Y307516D01*
X388069Y307888D01*
X389653Y308947D01*
X390712Y310531D01*
X391084Y312400D01*
X390712Y314269D01*
X389854Y315553D01*
X389732Y316400D01*
X389854Y317247D01*
X390712Y318531D01*
X391084Y320400D01*
X390712Y322269D01*
X389653Y323853D01*
X388069Y324912D01*
X386200Y325284D01*
D02*
G37*
G36*
X434200D02*
X432331Y324912D01*
X430747Y323853D01*
X429688Y322269D01*
X429316Y320400D01*
X429688Y318531D01*
X430747Y316947D01*
X432331Y315888D01*
X434200Y315516D01*
X436069Y315888D01*
X437653Y316947D01*
X438712Y318531D01*
X439084Y320400D01*
X438712Y322269D01*
X437653Y323853D01*
X436069Y324912D01*
X434200Y325284D01*
D02*
G37*
G36*
X62200Y314984D02*
X60331Y314612D01*
X58747Y313553D01*
X57980Y312406D01*
X56667Y312273D01*
X56511Y312319D01*
X55953Y313153D01*
X54369Y314212D01*
X52500Y314584D01*
X50631Y314212D01*
X49047Y313153D01*
X47988Y311569D01*
X47616Y309700D01*
X47988Y307831D01*
X49047Y306247D01*
X50631Y305188D01*
X52500Y304816D01*
X54369Y305188D01*
X55953Y306247D01*
X56720Y307394D01*
X58033Y307527D01*
X58189Y307481D01*
X58747Y306647D01*
X60331Y305588D01*
X62200Y305216D01*
X64069Y305588D01*
X65653Y306647D01*
X66712Y308231D01*
X67084Y310100D01*
X66712Y311969D01*
X65653Y313553D01*
X64069Y314612D01*
X62200Y314984D01*
D02*
G37*
G36*
X602500Y335644D02*
X599357Y335230D01*
X596428Y334017D01*
X593913Y332087D01*
X591983Y329572D01*
X590770Y326643D01*
X590356Y323500D01*
X590770Y320357D01*
X591983Y317428D01*
X593913Y314913D01*
X596428Y312983D01*
X599357Y311770D01*
X602500Y311356D01*
X605643Y311770D01*
X608572Y312983D01*
X611087Y314913D01*
X613017Y317428D01*
X614230Y320357D01*
X614644Y323500D01*
X614230Y326643D01*
X613017Y329572D01*
X611087Y332087D01*
X608572Y334017D01*
X605643Y335230D01*
X602500Y335644D01*
D02*
G37*
G36*
X537500D02*
X534357Y335230D01*
X531428Y334017D01*
X528913Y332087D01*
X526983Y329572D01*
X525770Y326643D01*
X525356Y323500D01*
X525770Y320357D01*
X526473Y318660D01*
X525874Y317540D01*
X525231Y317412D01*
X523647Y316353D01*
X522588Y314769D01*
X522216Y312900D01*
X522588Y311031D01*
X523647Y309447D01*
X525231Y308388D01*
X527100Y308016D01*
X528969Y308388D01*
X530553Y309447D01*
X531612Y311031D01*
X531762Y311782D01*
X532882Y312381D01*
X534357Y311770D01*
X537500Y311356D01*
X540643Y311770D01*
X543572Y312983D01*
X546087Y314913D01*
X548017Y317428D01*
X549230Y320357D01*
X549644Y323500D01*
X549230Y326643D01*
X548017Y329572D01*
X546087Y332087D01*
X543572Y334017D01*
X540643Y335230D01*
X537500Y335644D01*
D02*
G37*
G36*
X556100Y320384D02*
X554231Y320012D01*
X552647Y318953D01*
X551588Y317369D01*
X551216Y315500D01*
X551588Y313631D01*
X552647Y312047D01*
X554231Y310988D01*
X556100Y310616D01*
X557969Y310988D01*
X559553Y312047D01*
X560612Y313631D01*
X560984Y315500D01*
X560612Y317369D01*
X559553Y318953D01*
X557969Y320012D01*
X556100Y320384D01*
D02*
G37*
G36*
X458200Y317284D02*
X456331Y316912D01*
X454747Y315853D01*
X453688Y314269D01*
X453316Y312400D01*
X453688Y310531D01*
X454747Y308947D01*
X456331Y307888D01*
X458200Y307516D01*
X460069Y307888D01*
X461653Y308947D01*
X462712Y310531D01*
X463084Y312400D01*
X462712Y314269D01*
X461653Y315853D01*
X460069Y316912D01*
X458200Y317284D01*
D02*
G37*
G36*
X426200D02*
X424331Y316912D01*
X422747Y315853D01*
X421688Y314269D01*
X421316Y312400D01*
X421688Y310531D01*
X422747Y308947D01*
X424331Y307888D01*
X426200Y307516D01*
X428069Y307888D01*
X429653Y308947D01*
X430712Y310531D01*
X431084Y312400D01*
X430712Y314269D01*
X429653Y315853D01*
X428069Y316912D01*
X426200Y317284D01*
D02*
G37*
G36*
X402200D02*
X400331Y316912D01*
X398747Y315853D01*
X397688Y314269D01*
X397316Y312400D01*
X397688Y310531D01*
X398747Y308947D01*
X400331Y307888D01*
X402200Y307516D01*
X404069Y307888D01*
X405653Y308947D01*
X406712Y310531D01*
X407084Y312400D01*
X406712Y314269D01*
X405653Y315853D01*
X404069Y316912D01*
X402200Y317284D01*
D02*
G37*
G36*
X362200D02*
X360331Y316912D01*
X358747Y315853D01*
X357688Y314269D01*
X357316Y312400D01*
X357688Y310531D01*
X358747Y308947D01*
X360331Y307888D01*
X362200Y307516D01*
X364069Y307888D01*
X365653Y308947D01*
X366712Y310531D01*
X367084Y312400D01*
X366712Y314269D01*
X365653Y315853D01*
X364069Y316912D01*
X362200Y317284D01*
D02*
G37*
G36*
X322200D02*
X320331Y316912D01*
X318747Y315853D01*
X317688Y314269D01*
X317316Y312400D01*
X317688Y310531D01*
X318747Y308947D01*
X320331Y307888D01*
X322200Y307516D01*
X324069Y307888D01*
X325653Y308947D01*
X326712Y310531D01*
X327084Y312400D01*
X326712Y314269D01*
X325653Y315853D01*
X324069Y316912D01*
X322200Y317284D01*
D02*
G37*
G36*
X591900Y309584D02*
X590031Y309212D01*
X588447Y308153D01*
X587388Y306569D01*
X587360Y306428D01*
X586118Y305682D01*
X584600Y305984D01*
X582731Y305612D01*
X581147Y304553D01*
X580088Y302969D01*
X579716Y301100D01*
X580088Y299231D01*
X581147Y297647D01*
X582731Y296588D01*
X584600Y296216D01*
X586469Y296588D01*
X588053Y297647D01*
X589112Y299231D01*
X589140Y299372D01*
X590382Y300118D01*
X591900Y299816D01*
X593769Y300188D01*
X595353Y301247D01*
X596412Y302831D01*
X596784Y304700D01*
X596412Y306569D01*
X595353Y308153D01*
X593769Y309212D01*
X591900Y309584D01*
D02*
G37*
G36*
X493500Y312884D02*
X491631Y312512D01*
X490047Y311453D01*
X488988Y309869D01*
X488616Y308000D01*
X488988Y306131D01*
X490047Y304547D01*
X491631Y303488D01*
X493500Y303116D01*
X495369Y303488D01*
X496953Y304547D01*
X498012Y306131D01*
X498384Y308000D01*
X498012Y309869D01*
X496953Y311453D01*
X495369Y312512D01*
X493500Y312884D01*
D02*
G37*
G36*
X663900Y312484D02*
X662031Y312112D01*
X660447Y311053D01*
X659388Y309469D01*
X659016Y307600D01*
X659388Y305731D01*
X660447Y304147D01*
X662031Y303088D01*
X663900Y302716D01*
X665769Y303088D01*
X667353Y304147D01*
X668412Y305731D01*
X668784Y307600D01*
X668412Y309469D01*
X667353Y311053D01*
X665769Y312112D01*
X663900Y312484D01*
D02*
G37*
G36*
X426200Y301284D02*
X424331Y300912D01*
X422747Y299853D01*
X421653D01*
X420069Y300912D01*
X418200Y301284D01*
X416331Y300912D01*
X414747Y299853D01*
X413688Y298269D01*
X413316Y296400D01*
X413688Y294531D01*
X414747Y292947D01*
X416331Y291888D01*
X418200Y291516D01*
X420069Y291888D01*
X421353Y292746D01*
X422200Y292868D01*
X423047Y292746D01*
X424331Y291888D01*
X426200Y291516D01*
X428069Y291888D01*
X429653Y292947D01*
X430712Y294531D01*
X431084Y296400D01*
X430712Y298269D01*
X429653Y299853D01*
X428069Y300912D01*
X426200Y301284D01*
D02*
G37*
G36*
X346200Y317284D02*
X344331Y316912D01*
X342747Y315853D01*
X341688Y314269D01*
X341316Y312400D01*
X341688Y310531D01*
X342546Y309247D01*
X342747Y307853D01*
X341688Y306269D01*
X341316Y304400D01*
X341688Y302531D01*
X342498Y301319D01*
X342244Y300146D01*
X342071Y299870D01*
X341659Y299750D01*
X340369Y300612D01*
X338500Y300984D01*
X336631Y300612D01*
X335047Y299553D01*
X333988Y297969D01*
X333616Y296100D01*
X333988Y294231D01*
X335047Y292647D01*
X336631Y291588D01*
X338500Y291216D01*
X340369Y291588D01*
X341953Y292647D01*
X343047D01*
X344631Y291588D01*
X346500Y291216D01*
X348369Y291588D01*
X349953Y292647D01*
X351012Y294231D01*
X351384Y296100D01*
X351012Y297969D01*
X349953Y299553D01*
X349653Y299754D01*
Y300947D01*
X350712Y302531D01*
X351084Y304400D01*
X350712Y306269D01*
X349854Y307553D01*
X349653Y308947D01*
X350712Y310531D01*
X351084Y312400D01*
X350712Y314269D01*
X349653Y315853D01*
X348069Y316912D01*
X346200Y317284D01*
D02*
G37*
G36*
X442200Y309284D02*
X440331Y308912D01*
X438747Y307853D01*
X437688Y306269D01*
X437316Y304400D01*
X437688Y302531D01*
X438747Y300947D01*
X440331Y299888D01*
X442200Y299516D01*
X444069Y299888D01*
X445653Y300947D01*
X446712Y302531D01*
X447084Y304400D01*
X446712Y306269D01*
X445653Y307853D01*
X444069Y308912D01*
X442200Y309284D01*
D02*
G37*
G36*
X410200D02*
X408331Y308912D01*
X406747Y307853D01*
X405688Y306269D01*
X405316Y304400D01*
X405688Y302531D01*
X406747Y300947D01*
X408331Y299888D01*
X410200Y299516D01*
X412069Y299888D01*
X413653Y300947D01*
X414712Y302531D01*
X415084Y304400D01*
X414712Y306269D01*
X413653Y307853D01*
X412069Y308912D01*
X410200Y309284D01*
D02*
G37*
G36*
X74200Y305384D02*
X72331Y305012D01*
X70747Y303953D01*
X69688Y302369D01*
X69316Y300500D01*
X69688Y298631D01*
X70747Y297047D01*
X72331Y295988D01*
X74200Y295616D01*
X76069Y295988D01*
X77653Y297047D01*
X78712Y298631D01*
X79084Y300500D01*
X78712Y302369D01*
X77653Y303953D01*
X76069Y305012D01*
X74200Y305384D01*
D02*
G37*
G36*
X386200Y301284D02*
X384331Y300912D01*
X382747Y299853D01*
X381688Y298269D01*
X381316Y296400D01*
X381688Y294531D01*
X382747Y292947D01*
X384331Y291888D01*
X386200Y291516D01*
X388069Y291888D01*
X389653Y292947D01*
X390712Y294531D01*
X391084Y296400D01*
X390712Y298269D01*
X389653Y299853D01*
X388069Y300912D01*
X386200Y301284D01*
D02*
G37*
G36*
X370200Y309284D02*
X368331Y308912D01*
X366747Y307853D01*
X365688Y306269D01*
X365316Y304400D01*
X365688Y302531D01*
X366546Y301247D01*
X366747Y299853D01*
X365688Y298269D01*
X365316Y296400D01*
X365688Y294531D01*
X366747Y292947D01*
X368331Y291888D01*
X370200Y291516D01*
X372069Y291888D01*
X373653Y292947D01*
X374712Y294531D01*
X375084Y296400D01*
X374712Y298269D01*
X373653Y299853D01*
X373854Y301247D01*
X374712Y302531D01*
X375084Y304400D01*
X374712Y306269D01*
X373653Y307853D01*
X372069Y308912D01*
X370200Y309284D01*
D02*
G37*
G36*
X484400Y301184D02*
X482531Y300812D01*
X480947Y299753D01*
X479888Y298169D01*
X479516Y296300D01*
X479888Y294431D01*
X480947Y292847D01*
X482531Y291788D01*
X484400Y291416D01*
X486269Y291788D01*
X487853Y292847D01*
X488912Y294431D01*
X489284Y296300D01*
X488912Y298169D01*
X487853Y299753D01*
X486269Y300812D01*
X484400Y301184D01*
D02*
G37*
G36*
X434200Y285284D02*
X432331Y284912D01*
X431047Y284054D01*
X430200Y283932D01*
X429353Y284054D01*
X428069Y284912D01*
X426200Y285284D01*
X424331Y284912D01*
X422747Y283853D01*
X421688Y282269D01*
X421316Y280400D01*
X421688Y278531D01*
X422747Y276947D01*
X424331Y275888D01*
X426200Y275516D01*
X428069Y275888D01*
X429353Y276746D01*
X430200Y276868D01*
X431047Y276746D01*
X432331Y275888D01*
X434200Y275516D01*
X436069Y275888D01*
X437653Y276947D01*
X438712Y278531D01*
X439084Y280400D01*
X438712Y282269D01*
X437653Y283853D01*
X436069Y284912D01*
X434200Y285284D01*
D02*
G37*
G36*
X482200D02*
X480331Y284912D01*
X478747Y283853D01*
X477653D01*
X476069Y284912D01*
X474200Y285284D01*
X472331Y284912D01*
X470747Y283853D01*
X469688Y282269D01*
X469316Y280400D01*
X469688Y278531D01*
X470747Y276947D01*
X472331Y275888D01*
X474200Y275516D01*
X476069Y275888D01*
X477353Y276746D01*
X478200Y276868D01*
X479047Y276746D01*
X480331Y275888D01*
X482200Y275516D01*
X484069Y275888D01*
X485653Y276947D01*
X486712Y278531D01*
X487084Y280400D01*
X486712Y282269D01*
X485653Y283853D01*
X484069Y284912D01*
X482200Y285284D01*
D02*
G37*
G36*
X442200Y293284D02*
X440331Y292912D01*
X438747Y291853D01*
X437688Y290269D01*
X437316Y288400D01*
X437688Y286531D01*
X438747Y284947D01*
X440331Y283888D01*
X442200Y283516D01*
X444069Y283888D01*
X445653Y284947D01*
X446712Y286531D01*
X447084Y288400D01*
X446712Y290269D01*
X445653Y291853D01*
X444069Y292912D01*
X442200Y293284D01*
D02*
G37*
G36*
X521900Y296584D02*
X520031Y296212D01*
X518447Y295153D01*
X517388Y293569D01*
X517016Y291700D01*
X517388Y289831D01*
X518447Y288247D01*
X520031Y287188D01*
X521900Y286816D01*
X522623Y285665D01*
X522888Y284331D01*
X523947Y282747D01*
X525531Y281688D01*
X527400Y281316D01*
X529269Y281688D01*
X530853Y282747D01*
X531912Y284331D01*
X532284Y286200D01*
X531912Y288069D01*
X530853Y289653D01*
X529269Y290712D01*
X527400Y291084D01*
X526677Y292235D01*
X526412Y293569D01*
X525353Y295153D01*
X523769Y296212D01*
X521900Y296584D01*
D02*
G37*
G36*
X458200Y277284D02*
X456331Y276912D01*
X454747Y275853D01*
X453653D01*
X452069Y276912D01*
X450200Y277284D01*
X448331Y276912D01*
X446747Y275853D01*
X445688Y274269D01*
X445316Y272400D01*
X445688Y270531D01*
X446747Y268947D01*
X448331Y267888D01*
X450200Y267516D01*
X452069Y267888D01*
X453337Y268735D01*
X453908Y268591D01*
X454564Y267677D01*
X454546Y267553D01*
X453688Y266269D01*
X453316Y264400D01*
X453688Y262531D01*
X454388Y261484D01*
X454066Y260534D01*
X453116Y260212D01*
X452069Y260912D01*
X450200Y261284D01*
X448331Y260912D01*
X446747Y259853D01*
X445688Y258269D01*
X445316Y256400D01*
X445688Y254531D01*
X446747Y252947D01*
X448331Y251888D01*
X450200Y251516D01*
X452069Y251888D01*
X453653Y252947D01*
X455047Y252746D01*
X456331Y251888D01*
X458200Y251516D01*
X460069Y251888D01*
X461653Y252947D01*
X462712Y254531D01*
X463084Y256400D01*
X462712Y258269D01*
X461854Y259553D01*
X461653Y260947D01*
X462712Y262531D01*
X463084Y264400D01*
X462712Y266269D01*
X461854Y267553D01*
X461732Y268400D01*
X461854Y269247D01*
X462712Y270531D01*
X463084Y272400D01*
X462712Y274269D01*
X461653Y275853D01*
X460069Y276912D01*
X458200Y277284D01*
D02*
G37*
G36*
X410200D02*
X408331Y276912D01*
X406747Y275853D01*
X405653D01*
X404069Y276912D01*
X402200Y277284D01*
X400331Y276912D01*
X398747Y275853D01*
X397688Y274269D01*
X397316Y272400D01*
X397688Y270531D01*
X398546Y269247D01*
X398668Y268400D01*
X398546Y267553D01*
X397688Y266269D01*
X397316Y264400D01*
X397688Y262531D01*
X398747Y260947D01*
X400331Y259888D01*
X402200Y259516D01*
X404069Y259888D01*
X405653Y260947D01*
X406712Y262531D01*
X407084Y264400D01*
X406712Y266269D01*
X405854Y267553D01*
X405836Y267677D01*
X406492Y268591D01*
X407063Y268735D01*
X408331Y267888D01*
X410200Y267516D01*
X412069Y267888D01*
X413653Y268947D01*
X414712Y270531D01*
X415084Y272400D01*
X414712Y274269D01*
X413653Y275853D01*
X412069Y276912D01*
X410200Y277284D01*
D02*
G37*
G36*
X394200Y285284D02*
X392331Y284912D01*
X390747Y283853D01*
X389688Y282269D01*
X389316Y280400D01*
X389688Y278531D01*
X390747Y276947D01*
X392331Y275888D01*
X394200Y275516D01*
X396069Y275888D01*
X397653Y276947D01*
X398712Y278531D01*
X399084Y280400D01*
X398712Y282269D01*
X397653Y283853D01*
X396069Y284912D01*
X394200Y285284D01*
D02*
G37*
G36*
X362200D02*
X360331Y284912D01*
X358747Y283853D01*
X357688Y282269D01*
X357316Y280400D01*
X357688Y278531D01*
X358747Y276947D01*
X360331Y275888D01*
X362200Y275516D01*
X364069Y275888D01*
X365653Y276947D01*
X366712Y278531D01*
X367084Y280400D01*
X366712Y282269D01*
X365653Y283853D01*
X364069Y284912D01*
X362200Y285284D01*
D02*
G37*
G36*
X482200Y269284D02*
X480331Y268912D01*
X479047Y268054D01*
X477653Y267853D01*
X476069Y268912D01*
X474200Y269284D01*
X472331Y268912D01*
X470747Y267853D01*
X469688Y266269D01*
X469316Y264400D01*
X469688Y262531D01*
X470747Y260947D01*
X472331Y259888D01*
X474200Y259516D01*
X476069Y259888D01*
X477653Y260947D01*
X479047Y260746D01*
X480331Y259888D01*
X482200Y259516D01*
X484069Y259888D01*
X485653Y260947D01*
X486712Y262531D01*
X487084Y264400D01*
X486712Y266269D01*
X485653Y267853D01*
X484069Y268912D01*
X482200Y269284D01*
D02*
G37*
G36*
X378200Y285284D02*
X376331Y284912D01*
X374747Y283853D01*
X373688Y282269D01*
X373316Y280400D01*
X373688Y278531D01*
X374546Y277247D01*
X374668Y276400D01*
X374546Y275553D01*
X373688Y274269D01*
X373316Y272400D01*
X373688Y270531D01*
X374747Y268947D01*
X376331Y267888D01*
X378200Y267516D01*
X380069Y267888D01*
X381653Y268947D01*
X382712Y270531D01*
X383084Y272400D01*
X382712Y274269D01*
X381854Y275553D01*
X381732Y276400D01*
X381854Y277247D01*
X382712Y278531D01*
X383084Y280400D01*
X382712Y282269D01*
X381653Y283853D01*
X380069Y284912D01*
X378200Y285284D01*
D02*
G37*
G36*
X541398Y271385D02*
X539529Y271014D01*
X537945Y269955D01*
X536886Y268371D01*
X536515Y266502D01*
X536886Y264633D01*
X537945Y263048D01*
X539529Y261989D01*
X541398Y261618D01*
X543267Y261989D01*
X544852Y263048D01*
X545910Y264633D01*
X546282Y266502D01*
X545910Y268371D01*
X544852Y269955D01*
X543267Y271014D01*
X541398Y271385D01*
D02*
G37*
G36*
X511000Y270084D02*
X509131Y269712D01*
X507547Y268653D01*
X506488Y267069D01*
X506116Y265200D01*
X506488Y263331D01*
X507547Y261747D01*
X509131Y260688D01*
X511000Y260316D01*
X512869Y260688D01*
X514453Y261747D01*
X515512Y263331D01*
X515884Y265200D01*
X515512Y267069D01*
X514453Y268653D01*
X512869Y269712D01*
X511000Y270084D01*
D02*
G37*
G36*
X74800Y269384D02*
X72931Y269012D01*
X71347Y267953D01*
X70288Y266369D01*
X69916Y264500D01*
X70288Y262631D01*
X71347Y261047D01*
X72931Y259988D01*
X74800Y259616D01*
X76669Y259988D01*
X78253Y261047D01*
X79312Y262631D01*
X79684Y264500D01*
X79312Y266369D01*
X78253Y267953D01*
X76669Y269012D01*
X74800Y269384D01*
D02*
G37*
G36*
X370200Y269284D02*
X368331Y268912D01*
X366747Y267853D01*
X365688Y266269D01*
X365316Y264400D01*
X365688Y262531D01*
X366747Y260947D01*
X368331Y259888D01*
X370200Y259516D01*
X372069Y259888D01*
X373653Y260947D01*
X374712Y262531D01*
X375084Y264400D01*
X374712Y266269D01*
X373653Y267853D01*
X372069Y268912D01*
X370200Y269284D01*
D02*
G37*
G36*
X354200D02*
X352331Y268912D01*
X350747Y267853D01*
X349688Y266269D01*
X349316Y264400D01*
X349688Y262531D01*
X350747Y260947D01*
X352331Y259888D01*
X354200Y259516D01*
X356069Y259888D01*
X357653Y260947D01*
X358712Y262531D01*
X359084Y264400D01*
X358712Y266269D01*
X357653Y267853D01*
X356069Y268912D01*
X354200Y269284D01*
D02*
G37*
G36*
X426200Y261284D02*
X424331Y260912D01*
X422747Y259853D01*
X421688Y258269D01*
X421316Y256400D01*
X421688Y254531D01*
X422546Y253247D01*
X422596Y252902D01*
X421698Y252004D01*
X421353Y252054D01*
X420069Y252912D01*
X418200Y253284D01*
X416331Y252912D01*
X414747Y251853D01*
X413688Y250269D01*
X413316Y248400D01*
X413688Y246531D01*
X414747Y244947D01*
X416331Y243888D01*
X418200Y243516D01*
X420069Y243888D01*
X421353Y244746D01*
X422200Y244868D01*
X423047Y244746D01*
X424331Y243888D01*
X426200Y243516D01*
X428069Y243888D01*
X429653Y244947D01*
X430712Y246531D01*
X431084Y248400D01*
X430712Y250269D01*
X429854Y251553D01*
X429732Y252400D01*
X429854Y253247D01*
X430712Y254531D01*
X431084Y256400D01*
X430712Y258269D01*
X429653Y259853D01*
X428069Y260912D01*
X426200Y261284D01*
D02*
G37*
G36*
X378200Y253284D02*
X376331Y252912D01*
X374747Y251853D01*
X373688Y250269D01*
X373316Y248400D01*
X373688Y246531D01*
X374747Y244947D01*
X376331Y243888D01*
X378200Y243516D01*
X380069Y243888D01*
X381653Y244947D01*
X382712Y246531D01*
X383084Y248400D01*
X382712Y250269D01*
X381653Y251853D01*
X380069Y252912D01*
X378200Y253284D01*
D02*
G37*
G36*
X34000Y247984D02*
X32131Y247612D01*
X30547Y246553D01*
X29488Y244969D01*
X29116Y243100D01*
X29488Y241231D01*
X30547Y239647D01*
X32131Y238588D01*
X34000Y238216D01*
X35869Y238588D01*
X37453Y239647D01*
X38512Y241231D01*
X38884Y243100D01*
X38512Y244969D01*
X37453Y246553D01*
X35869Y247612D01*
X34000Y247984D01*
D02*
G37*
G36*
X442200Y245284D02*
X440331Y244912D01*
X438747Y243853D01*
X437688Y242269D01*
X437316Y240400D01*
X437688Y238531D01*
X438747Y236947D01*
X440331Y235888D01*
X442200Y235516D01*
X444069Y235888D01*
X445653Y236947D01*
X446712Y238531D01*
X447084Y240400D01*
X446712Y242269D01*
X445653Y243853D01*
X444069Y244912D01*
X442200Y245284D01*
D02*
G37*
G36*
X402200Y253284D02*
X400331Y252912D01*
X398747Y251853D01*
X397688Y250269D01*
X397316Y248400D01*
X397688Y246531D01*
X398546Y245247D01*
X398668Y244400D01*
X398546Y243553D01*
X397688Y242269D01*
X397316Y240400D01*
X397688Y238531D01*
X398747Y236947D01*
X400331Y235888D01*
X402200Y235516D01*
X404069Y235888D01*
X405653Y236947D01*
X406712Y238531D01*
X407084Y240400D01*
X406712Y242269D01*
X405854Y243553D01*
X405732Y244400D01*
X405854Y245247D01*
X406712Y246531D01*
X407084Y248400D01*
X406712Y250269D01*
X405653Y251853D01*
X404069Y252912D01*
X402200Y253284D01*
D02*
G37*
G36*
X330200Y285284D02*
X328331Y284912D01*
X326747Y283853D01*
X325688Y282269D01*
X325316Y280400D01*
X325688Y278531D01*
X326747Y276947D01*
X328331Y275888D01*
X330200Y275516D01*
X332069Y275888D01*
X333422Y276792D01*
X333791Y276830D01*
X334906Y275668D01*
X334846Y275253D01*
X333988Y273969D01*
X333616Y272100D01*
X333988Y270231D01*
X334846Y268947D01*
X334968Y268100D01*
X334846Y267253D01*
X333988Y265969D01*
X333616Y264100D01*
X333988Y262231D01*
X334846Y260947D01*
X334968Y260100D01*
X334846Y259253D01*
X333988Y257969D01*
X333616Y256100D01*
X333988Y254231D01*
X334846Y252947D01*
X334968Y252100D01*
X334846Y251253D01*
X333988Y249969D01*
X333616Y248100D01*
X333988Y246231D01*
X334846Y244947D01*
X334968Y244100D01*
X334846Y243253D01*
X333988Y241969D01*
X333616Y240100D01*
X333988Y238231D01*
X335047Y236647D01*
X336631Y235588D01*
X338500Y235216D01*
X340369Y235588D01*
X341584Y236400D01*
X342747Y236947D01*
X344331Y235888D01*
X346200Y235516D01*
X348069Y235888D01*
X349653Y236947D01*
X350747D01*
X352331Y235888D01*
X354200Y235516D01*
X356069Y235888D01*
X357353Y236746D01*
X358747Y236947D01*
X360331Y235888D01*
X362200Y235516D01*
X364069Y235888D01*
X365653Y236947D01*
X366712Y238531D01*
X367084Y240400D01*
X366712Y242269D01*
X365653Y243853D01*
X364069Y244912D01*
X362200Y245284D01*
X360331Y244912D01*
X359047Y244054D01*
X357653Y243853D01*
X356069Y244912D01*
X354200Y245284D01*
X352331Y244912D01*
X350747Y243853D01*
X349653D01*
X348069Y244912D01*
X346200Y245284D01*
X344331Y244912D01*
X343116Y244100D01*
X343115Y244100D01*
X342200Y245015D01*
X343012Y246231D01*
X343384Y248100D01*
X343012Y249969D01*
X342154Y251253D01*
X342032Y252100D01*
X342154Y252947D01*
X343012Y254231D01*
X343384Y256100D01*
X343012Y257969D01*
X342154Y259253D01*
X342032Y260100D01*
X342154Y260947D01*
X343012Y262231D01*
X343384Y264100D01*
X343012Y265969D01*
X342154Y267253D01*
X342032Y268100D01*
X342154Y268947D01*
X343012Y270231D01*
X343384Y272100D01*
X343012Y273969D01*
X342154Y275253D01*
X342032Y276100D01*
X342154Y276947D01*
X343012Y278231D01*
X343384Y280100D01*
X343012Y281969D01*
X341953Y283553D01*
X340369Y284612D01*
X338500Y284984D01*
X336631Y284612D01*
X335278Y283708D01*
X333849Y283561D01*
X333653Y283853D01*
X332069Y284912D01*
X330200Y285284D01*
D02*
G37*
G36*
X466200Y245284D02*
X464331Y244912D01*
X462747Y243853D01*
X461688Y242269D01*
X461316Y240400D01*
X461688Y238531D01*
X462546Y237247D01*
X462668Y236400D01*
X462546Y235553D01*
X461688Y234269D01*
X461316Y232400D01*
X461688Y230531D01*
X462747Y228947D01*
X464331Y227888D01*
X466200Y227516D01*
X468069Y227888D01*
X469653Y228947D01*
X470712Y230531D01*
X471084Y232400D01*
X470712Y234269D01*
X469854Y235553D01*
X469732Y236400D01*
X469854Y237247D01*
X470712Y238531D01*
X471084Y240400D01*
X470712Y242269D01*
X469653Y243853D01*
X468069Y244912D01*
X466200Y245284D01*
D02*
G37*
G36*
X386200D02*
X384331Y244912D01*
X382747Y243853D01*
X381688Y242269D01*
X381316Y240400D01*
X381688Y238531D01*
X382546Y237247D01*
X382668Y236400D01*
X382546Y235553D01*
X381688Y234269D01*
X381316Y232400D01*
X381688Y230531D01*
X382747Y228947D01*
X384331Y227888D01*
X386200Y227516D01*
X388069Y227888D01*
X389653Y228947D01*
X390747D01*
X392331Y227888D01*
X394200Y227516D01*
X396069Y227888D01*
X397653Y228947D01*
X398712Y230531D01*
X399084Y232400D01*
X398712Y234269D01*
X397653Y235853D01*
X396069Y236912D01*
X394200Y237284D01*
X392331Y236912D01*
X391063Y236065D01*
X390492Y236209D01*
X389836Y237123D01*
X389854Y237247D01*
X390712Y238531D01*
X391084Y240400D01*
X390712Y242269D01*
X389653Y243853D01*
X388069Y244912D01*
X386200Y245284D01*
D02*
G37*
G36*
X426200Y237284D02*
X424331Y236912D01*
X422747Y235853D01*
X421688Y234269D01*
X421316Y232400D01*
X421688Y230531D01*
X422546Y229247D01*
X422668Y228400D01*
X422546Y227553D01*
X421688Y226269D01*
X421316Y224400D01*
X421688Y222531D01*
X422747Y220947D01*
X424331Y219888D01*
X426200Y219516D01*
X428069Y219888D01*
X429653Y220947D01*
X430712Y222531D01*
X431084Y224400D01*
X430712Y226269D01*
X429854Y227553D01*
X429732Y228400D01*
X429854Y229247D01*
X430712Y230531D01*
X431084Y232400D01*
X430712Y234269D01*
X429653Y235853D01*
X428069Y236912D01*
X426200Y237284D01*
D02*
G37*
G36*
X410200Y229284D02*
X408331Y228912D01*
X406747Y227853D01*
X405688Y226269D01*
X405316Y224400D01*
X405688Y222531D01*
X406747Y220947D01*
X408331Y219888D01*
X410200Y219516D01*
X412069Y219888D01*
X413653Y220947D01*
X414712Y222531D01*
X415084Y224400D01*
X414712Y226269D01*
X413653Y227853D01*
X412069Y228912D01*
X410200Y229284D01*
D02*
G37*
G36*
X378200D02*
X376331Y228912D01*
X374747Y227853D01*
X373688Y226269D01*
X373316Y224400D01*
X373688Y222531D01*
X374747Y220947D01*
X376331Y219888D01*
X378200Y219516D01*
X380069Y219888D01*
X381653Y220947D01*
X382712Y222531D01*
X383084Y224400D01*
X382712Y226269D01*
X381653Y227853D01*
X380069Y228912D01*
X378200Y229284D01*
D02*
G37*
G36*
X458200Y221284D02*
X456331Y220912D01*
X454747Y219853D01*
X453688Y218269D01*
X453316Y216400D01*
X453688Y214531D01*
X454747Y212947D01*
X456331Y211888D01*
X458200Y211516D01*
X460069Y211888D01*
X461653Y212947D01*
X462712Y214531D01*
X463084Y216400D01*
X462712Y218269D01*
X461653Y219853D01*
X460069Y220912D01*
X458200Y221284D01*
D02*
G37*
G36*
X418200D02*
X416331Y220912D01*
X414747Y219853D01*
X413688Y218269D01*
X413316Y216400D01*
X413688Y214531D01*
X414747Y212947D01*
X416331Y211888D01*
X418200Y211516D01*
X420069Y211888D01*
X421653Y212947D01*
X422712Y214531D01*
X423084Y216400D01*
X422712Y218269D01*
X421653Y219853D01*
X420069Y220912D01*
X418200Y221284D01*
D02*
G37*
G36*
X52040Y229384D02*
X50171Y229012D01*
X48587Y227953D01*
X47528Y226369D01*
X47156Y224500D01*
X47528Y222631D01*
X48587Y221047D01*
X50171Y219988D01*
X52040Y219616D01*
X53909Y219988D01*
X55211Y220858D01*
X56588Y220881D01*
X56844Y220782D01*
X58331Y219788D01*
X60200Y219416D01*
X62069Y219788D01*
X63422Y220692D01*
X64250Y220782D01*
X65078Y220692D01*
X66431Y219788D01*
X68300Y219416D01*
X70169Y219788D01*
X71453Y220646D01*
X72300Y220768D01*
X73147Y220646D01*
X74431Y219788D01*
X74991Y219677D01*
X75259Y218328D01*
X75147Y218253D01*
X74088Y216669D01*
X73716Y214800D01*
X74088Y212931D01*
X75147Y211347D01*
X76731Y210288D01*
X78600Y209916D01*
X80469Y210288D01*
X82053Y211347D01*
X83112Y212931D01*
X83484Y214800D01*
X83112Y216669D01*
X82053Y218253D01*
X80469Y219312D01*
X79909Y219423D01*
X79641Y220772D01*
X79753Y220847D01*
X80812Y222431D01*
X81184Y224300D01*
X80812Y226169D01*
X79753Y227753D01*
X78169Y228812D01*
X76300Y229184D01*
X74431Y228812D01*
X73147Y227954D01*
X72300Y227832D01*
X71453Y227954D01*
X70169Y228812D01*
X68300Y229184D01*
X66431Y228812D01*
X65078Y227908D01*
X64250Y227818D01*
X63422Y227908D01*
X62069Y228812D01*
X60200Y229184D01*
X58331Y228812D01*
X57029Y227942D01*
X55652Y227919D01*
X55396Y228018D01*
X53909Y229012D01*
X52040Y229384D01*
D02*
G37*
G36*
X194000Y215684D02*
X192131Y215312D01*
X190547Y214253D01*
X189488Y212669D01*
X189116Y210800D01*
X189488Y208931D01*
X190547Y207347D01*
X192131Y206288D01*
X194000Y205916D01*
X195869Y206288D01*
X197453Y207347D01*
X198512Y208931D01*
X198884Y210800D01*
X198512Y212669D01*
X197453Y214253D01*
X195869Y215312D01*
X194000Y215684D01*
D02*
G37*
G36*
X442200Y213284D02*
X440331Y212912D01*
X438747Y211853D01*
X437688Y210269D01*
X437316Y208400D01*
X437688Y206531D01*
X438747Y204947D01*
X440331Y203888D01*
X442200Y203516D01*
X444069Y203888D01*
X445653Y204947D01*
X446712Y206531D01*
X447084Y208400D01*
X446712Y210269D01*
X445653Y211853D01*
X444069Y212912D01*
X442200Y213284D01*
D02*
G37*
G36*
X426200D02*
X424331Y212912D01*
X422747Y211853D01*
X421688Y210269D01*
X421316Y208400D01*
X421688Y206531D01*
X422747Y204947D01*
X424331Y203888D01*
X426200Y203516D01*
X428069Y203888D01*
X429653Y204947D01*
X430712Y206531D01*
X431084Y208400D01*
X430712Y210269D01*
X429653Y211853D01*
X428069Y212912D01*
X426200Y213284D01*
D02*
G37*
G36*
X386200Y221284D02*
X384331Y220912D01*
X382747Y219853D01*
X381688Y218269D01*
X381316Y216400D01*
X381688Y214531D01*
X382747Y212947D01*
X382546Y211553D01*
X381688Y210269D01*
X381316Y208400D01*
X381688Y206531D01*
X382747Y204947D01*
X384331Y203888D01*
X386200Y203516D01*
X388069Y203888D01*
X389653Y204947D01*
X390712Y206531D01*
X391084Y208400D01*
X390712Y210269D01*
X389854Y211553D01*
X389653Y212947D01*
X390712Y214531D01*
X391084Y216400D01*
X390712Y218269D01*
X389653Y219853D01*
X388069Y220912D01*
X386200Y221284D01*
D02*
G37*
G36*
X370200Y213284D02*
X368331Y212912D01*
X366747Y211853D01*
X365688Y210269D01*
X365316Y208400D01*
X365688Y206531D01*
X366747Y204947D01*
X368331Y203888D01*
X370200Y203516D01*
X372069Y203888D01*
X373653Y204947D01*
X374712Y206531D01*
X375084Y208400D01*
X374712Y210269D01*
X373653Y211853D01*
X372069Y212912D01*
X370200Y213284D01*
D02*
G37*
G36*
X338200Y229284D02*
X336331Y228912D01*
X334747Y227853D01*
X333688Y226269D01*
X333316Y224400D01*
X333688Y222531D01*
X334546Y221247D01*
X334668Y220400D01*
X334546Y219553D01*
X333688Y218269D01*
X333316Y216400D01*
X333688Y214531D01*
X334747Y212947D01*
X335047Y212746D01*
Y211553D01*
X333988Y209969D01*
X333616Y208100D01*
X333988Y206231D01*
X335047Y204647D01*
X336631Y203588D01*
X338500Y203216D01*
X340369Y203588D01*
X341953Y204647D01*
X343012Y206231D01*
X343384Y208100D01*
X343012Y209969D01*
X341953Y211553D01*
X341661Y211749D01*
X341808Y213178D01*
X342712Y214531D01*
X343084Y216400D01*
X342712Y218269D01*
X341854Y219553D01*
X341732Y220400D01*
X341854Y221247D01*
X342712Y222531D01*
X343084Y224400D01*
X342712Y226269D01*
X341653Y227853D01*
X340069Y228912D01*
X338200Y229284D01*
D02*
G37*
G36*
X114000Y212924D02*
X112131Y212552D01*
X110547Y211493D01*
X109488Y209909D01*
X109116Y208040D01*
X109488Y206171D01*
X110547Y204587D01*
X112131Y203528D01*
X114000Y203156D01*
X115869Y203528D01*
X117453Y204587D01*
X118512Y206171D01*
X118884Y208040D01*
X118512Y209909D01*
X117453Y211493D01*
X115869Y212552D01*
X114000Y212924D01*
D02*
G37*
G36*
X90000Y212384D02*
X88131Y212012D01*
X86547Y210953D01*
X85488Y209369D01*
X85116Y207500D01*
X85488Y205631D01*
X86547Y204047D01*
X88131Y202988D01*
X90000Y202616D01*
X91869Y202988D01*
X93453Y204047D01*
X94512Y205631D01*
X94884Y207500D01*
X94512Y209369D01*
X93453Y210953D01*
X91869Y212012D01*
X90000Y212384D01*
D02*
G37*
G36*
X282000Y209784D02*
X280131Y209412D01*
X278547Y208353D01*
X277488Y206769D01*
X277116Y204900D01*
X277488Y203031D01*
X278547Y201447D01*
X280131Y200388D01*
X282000Y200016D01*
X283869Y200388D01*
X285453Y201447D01*
X286512Y203031D01*
X286884Y204900D01*
X286512Y206769D01*
X285453Y208353D01*
X283869Y209412D01*
X282000Y209784D01*
D02*
G37*
G36*
X354500Y213584D02*
X352631Y213212D01*
X351047Y212153D01*
X349988Y210569D01*
X349616Y208700D01*
X349988Y206831D01*
X350846Y205547D01*
X350968Y204700D01*
X350846Y203853D01*
X349988Y202569D01*
X349616Y200700D01*
X349988Y198831D01*
X351047Y197247D01*
X352631Y196188D01*
X354500Y195816D01*
X356369Y196188D01*
X357953Y197247D01*
X359012Y198831D01*
X359384Y200700D01*
X359012Y202569D01*
X358154Y203853D01*
X358032Y204700D01*
X358154Y205547D01*
X359012Y206831D01*
X359384Y208700D01*
X359012Y210569D01*
X357953Y212153D01*
X356369Y213212D01*
X354500Y213584D01*
D02*
G37*
G36*
X72300Y197584D02*
X70431Y197212D01*
X68847Y196153D01*
X67980Y194856D01*
X66944Y194686D01*
X66528Y194743D01*
X66053Y195453D01*
X64469Y196512D01*
X62600Y196884D01*
X60731Y196512D01*
X59147Y195453D01*
X58088Y193869D01*
X57716Y192000D01*
X58088Y190131D01*
X59147Y188547D01*
X60731Y187488D01*
X62600Y187116D01*
X64469Y187488D01*
X66053Y188547D01*
X66920Y189844D01*
X67956Y190014D01*
X68372Y189956D01*
X68847Y189247D01*
X70431Y188188D01*
X72300Y187816D01*
X74169Y188188D01*
X75753Y189247D01*
X76812Y190831D01*
X77184Y192700D01*
X76812Y194569D01*
X75753Y196153D01*
X74169Y197212D01*
X72300Y197584D01*
D02*
G37*
G36*
X541400Y200884D02*
X539531Y200512D01*
X537947Y199453D01*
X536888Y197869D01*
X536516Y196000D01*
X536888Y194131D01*
X537947Y192547D01*
X539531Y191488D01*
X541400Y191116D01*
X543269Y191488D01*
X544853Y192547D01*
X545912Y194131D01*
X546284Y196000D01*
X545912Y197869D01*
X544853Y199453D01*
X543269Y200512D01*
X541400Y200884D01*
D02*
G37*
G36*
X274000Y190884D02*
X272131Y190512D01*
X270547Y189453D01*
X269714Y188207D01*
X268250Y187658D01*
X267869Y187912D01*
X266000Y188284D01*
X264131Y187912D01*
X262547Y186853D01*
X261488Y185269D01*
X261116Y183400D01*
X261488Y181531D01*
X262547Y179947D01*
X264131Y178888D01*
X266000Y178516D01*
X267869Y178888D01*
X269453Y179947D01*
X270286Y181193D01*
X271750Y181742D01*
X272131Y181488D01*
X274000Y181116D01*
X275869Y181488D01*
X277453Y182547D01*
X278512Y184131D01*
X278884Y186000D01*
X278512Y187869D01*
X277453Y189453D01*
X275869Y190512D01*
X274000Y190884D01*
D02*
G37*
G36*
X450200Y197284D02*
X448331Y196912D01*
X446747Y195853D01*
X445688Y194269D01*
X445316Y192400D01*
X445688Y190531D01*
X446747Y188947D01*
X448331Y187888D01*
X450200Y187516D01*
X452069Y187888D01*
X453653Y188947D01*
X454712Y190531D01*
X455084Y192400D01*
X454712Y194269D01*
X453653Y195853D01*
X452069Y196912D01*
X450200Y197284D01*
D02*
G37*
G36*
X234000Y189384D02*
X232131Y189012D01*
X230547Y187953D01*
X229488Y186369D01*
X229116Y184500D01*
X229488Y182631D01*
X230547Y181047D01*
X232131Y179988D01*
X234000Y179616D01*
X235869Y179988D01*
X237453Y181047D01*
X238512Y182631D01*
X238884Y184500D01*
X238512Y186369D01*
X237453Y187953D01*
X235869Y189012D01*
X234000Y189384D01*
D02*
G37*
G36*
X434200Y189284D02*
X432331Y188912D01*
X430747Y187853D01*
X429688Y186269D01*
X429316Y184400D01*
X429688Y182531D01*
X430747Y180947D01*
X432331Y179888D01*
X434200Y179516D01*
X436069Y179888D01*
X437653Y180947D01*
X438712Y182531D01*
X439084Y184400D01*
X438712Y186269D01*
X437653Y187853D01*
X436069Y188912D01*
X434200Y189284D01*
D02*
G37*
G36*
X370200D02*
X368331Y188912D01*
X366747Y187853D01*
X365688Y186269D01*
X365316Y184400D01*
X365688Y182531D01*
X366747Y180947D01*
X368331Y179888D01*
X370200Y179516D01*
X372069Y179888D01*
X373653Y180947D01*
X374712Y182531D01*
X375084Y184400D01*
X374712Y186269D01*
X373653Y187853D01*
X372069Y188912D01*
X370200Y189284D01*
D02*
G37*
G36*
X338200D02*
X336331Y188912D01*
X334747Y187853D01*
X333688Y186269D01*
X333316Y184400D01*
X333688Y182531D01*
X334747Y180947D01*
X336331Y179888D01*
X338200Y179516D01*
X340069Y179888D01*
X341653Y180947D01*
X342712Y182531D01*
X343084Y184400D01*
X342712Y186269D01*
X341653Y187853D01*
X340069Y188912D01*
X338200Y189284D01*
D02*
G37*
G36*
X250000Y188284D02*
X248131Y187912D01*
X246547Y186853D01*
X245488Y185269D01*
X245116Y183400D01*
X245488Y181531D01*
X246547Y179947D01*
X248131Y178888D01*
X250000Y178516D01*
X251869Y178888D01*
X253453Y179947D01*
X254512Y181531D01*
X254884Y183400D01*
X254512Y185269D01*
X253453Y186853D01*
X251869Y187912D01*
X250000Y188284D01*
D02*
G37*
G36*
X290000D02*
X288131Y187912D01*
X286547Y186853D01*
X285488Y185269D01*
X285116Y183400D01*
X285488Y181531D01*
X286547Y179947D01*
X288131Y178888D01*
X290000Y178516D01*
X291869Y178888D01*
X293453Y179947D01*
X293535D01*
X294570Y179331D01*
X296131Y178288D01*
X298000Y177916D01*
X299869Y178288D01*
X301453Y179347D01*
X302512Y180931D01*
X302884Y182800D01*
X302512Y184669D01*
X301453Y186253D01*
X299869Y187312D01*
X298000Y187684D01*
X296131Y187312D01*
X294547Y186253D01*
X294465D01*
X293430Y186869D01*
X291869Y187912D01*
X290000Y188284D01*
D02*
G37*
G36*
X181100Y172584D02*
X179231Y172212D01*
X177647Y171153D01*
X176588Y169569D01*
X176488Y169065D01*
X175383Y168982D01*
X175182Y169013D01*
X174153Y170553D01*
X172569Y171612D01*
X170700Y171984D01*
X168831Y171612D01*
X167247Y170553D01*
X166188Y168969D01*
X165816Y167100D01*
X166188Y165231D01*
X167247Y163647D01*
X167994Y163147D01*
Y161619D01*
X167447Y161253D01*
X166388Y159669D01*
X166016Y157800D01*
X166388Y155931D01*
X167447Y154347D01*
X169031Y153288D01*
X169636Y153168D01*
Y151873D01*
X169331Y151812D01*
X167747Y150753D01*
X166688Y149169D01*
X166316Y147300D01*
X166688Y145431D01*
X167747Y143847D01*
X169331Y142788D01*
X171200Y142416D01*
X173069Y142788D01*
X174653Y143847D01*
X175712Y145431D01*
X176084Y147300D01*
X175712Y149169D01*
X174653Y150753D01*
X173069Y151812D01*
X172464Y151932D01*
Y153227D01*
X172769Y153288D01*
X174353Y154347D01*
X175412Y155931D01*
X175784Y157800D01*
X175412Y159669D01*
X174353Y161253D01*
X173605Y161753D01*
Y163281D01*
X174153Y163647D01*
X175212Y165231D01*
X175312Y165735D01*
X176416Y165818D01*
X176618Y165787D01*
X177647Y164247D01*
X179231Y163188D01*
X181100Y162816D01*
X182969Y163188D01*
X184553Y164247D01*
X185612Y165831D01*
X185984Y167700D01*
X185612Y169569D01*
X184553Y171153D01*
X182969Y172212D01*
X181100Y172584D01*
D02*
G37*
G36*
X199500Y175484D02*
X197631Y175112D01*
X196047Y174053D01*
X194988Y172469D01*
X194616Y170600D01*
X194988Y168731D01*
X196047Y167147D01*
X197631Y166088D01*
X199500Y165716D01*
X201369Y166088D01*
X202953Y167147D01*
X204012Y168731D01*
X204384Y170600D01*
X204012Y172469D01*
X202953Y174053D01*
X201369Y175112D01*
X199500Y175484D01*
D02*
G37*
G36*
X260300Y175384D02*
X258431Y175012D01*
X256847Y173953D01*
X255788Y172369D01*
X255416Y170500D01*
X255788Y168631D01*
X256847Y167047D01*
X258431Y165988D01*
X260300Y165616D01*
X262169Y165988D01*
X263753Y167047D01*
X264812Y168631D01*
X265184Y170500D01*
X264812Y172369D01*
X263753Y173953D01*
X262169Y175012D01*
X260300Y175384D01*
D02*
G37*
G36*
X72800Y165184D02*
X70931Y164812D01*
X69347Y163753D01*
X68980Y163204D01*
X67476Y163239D01*
X66169Y164112D01*
X64300Y164484D01*
X62431Y164112D01*
X60847Y163053D01*
X59788Y161469D01*
X59416Y159600D01*
X59788Y157731D01*
X60589Y156532D01*
X60647Y155253D01*
X59588Y153669D01*
X59216Y151800D01*
X59588Y149931D01*
X60647Y148347D01*
X62231Y147288D01*
X64100Y146916D01*
X65969Y147288D01*
X67553Y148347D01*
X67898Y148863D01*
X69168D01*
X69447Y148447D01*
X71031Y147388D01*
X72900Y147016D01*
X74769Y147388D01*
X76353Y148447D01*
X77412Y150031D01*
X77784Y151900D01*
X77412Y153769D01*
X76353Y155353D01*
X76136Y155498D01*
Y156560D01*
X76300Y156917D01*
X77312Y158431D01*
X77684Y160300D01*
X77312Y162169D01*
X76253Y163753D01*
X74669Y164812D01*
X72800Y165184D01*
D02*
G37*
G36*
X512900Y169384D02*
X511031Y169012D01*
X509447Y167954D01*
X508388Y166369D01*
X508017Y164500D01*
X508388Y162631D01*
X509447Y161047D01*
X511031Y159988D01*
X512900Y159616D01*
X514769Y159988D01*
X516354Y161047D01*
X517412Y162631D01*
X517784Y164500D01*
X517412Y166369D01*
X516354Y167954D01*
X514769Y169012D01*
X512900Y169384D01*
D02*
G37*
G36*
X86000Y163984D02*
X84131Y163612D01*
X82547Y162553D01*
X81488Y160969D01*
X81116Y159100D01*
X81488Y157231D01*
X82547Y155647D01*
X84131Y154588D01*
X86000Y154216D01*
X87869Y154588D01*
X89453Y155647D01*
X90512Y157231D01*
X90884Y159100D01*
X90512Y160969D01*
X89453Y162553D01*
X87869Y163612D01*
X86000Y163984D01*
D02*
G37*
G36*
X242700Y170384D02*
X240831Y170012D01*
X239247Y168953D01*
X238188Y167369D01*
X237816Y165500D01*
X238188Y163631D01*
X239247Y162047D01*
X240831Y160988D01*
X242700Y160616D01*
X242827Y160641D01*
X243907Y159561D01*
X243716Y158600D01*
X244088Y156731D01*
X245147Y155147D01*
X246731Y154088D01*
X248600Y153716D01*
X250469Y154088D01*
X252053Y155147D01*
X253112Y156731D01*
X253484Y158600D01*
X253112Y160469D01*
X252053Y162053D01*
X250469Y163112D01*
X248600Y163484D01*
X248473Y163458D01*
X247393Y164539D01*
X247584Y165500D01*
X247212Y167369D01*
X246153Y168953D01*
X244569Y170012D01*
X242700Y170384D01*
D02*
G37*
G36*
X281600Y163184D02*
X279731Y162812D01*
X278147Y161753D01*
X277088Y160169D01*
X276716Y158300D01*
X277088Y156431D01*
X278147Y154847D01*
X279731Y153788D01*
X281600Y153416D01*
X283469Y153788D01*
X285053Y154847D01*
X286112Y156431D01*
X286484Y158300D01*
X286112Y160169D01*
X285053Y161753D01*
X283469Y162812D01*
X281600Y163184D01*
D02*
G37*
G36*
X189600Y162984D02*
X187731Y162612D01*
X186147Y161553D01*
X185088Y159969D01*
X184716Y158100D01*
X185088Y156231D01*
X186147Y154647D01*
X187731Y153588D01*
X189600Y153216D01*
X191469Y153588D01*
X193053Y154647D01*
X194112Y156231D01*
X194484Y158100D01*
X194112Y159969D01*
X193053Y161553D01*
X191469Y162612D01*
X189600Y162984D01*
D02*
G37*
G36*
X47630Y166852D02*
X44370D01*
X42501Y166606D01*
X40759Y165884D01*
X39263Y164737D01*
X38116Y163241D01*
X37394Y161499D01*
X37148Y159630D01*
Y157870D01*
X37394Y156001D01*
X38116Y154259D01*
X39263Y152763D01*
X40759Y151616D01*
X42501Y150894D01*
X44370Y150648D01*
X47630D01*
X49499Y150894D01*
X51241Y151616D01*
X52737Y152763D01*
X53884Y154259D01*
X54606Y156001D01*
X54852Y157870D01*
Y159630D01*
X54606Y161499D01*
X53884Y163241D01*
X52737Y164737D01*
X51241Y165884D01*
X49499Y166606D01*
X47630Y166852D01*
D02*
G37*
G36*
X146000Y159684D02*
X144131Y159312D01*
X142547Y158253D01*
X141488Y156669D01*
X141116Y154800D01*
X141488Y152931D01*
X142547Y151347D01*
X144131Y150288D01*
X146000Y149916D01*
X147869Y150288D01*
X149453Y151347D01*
X150512Y152931D01*
X150884Y154800D01*
X150512Y156669D01*
X149453Y158253D01*
X147869Y159312D01*
X146000Y159684D01*
D02*
G37*
G36*
X18100Y156784D02*
X16231Y156412D01*
X14647Y155353D01*
X13588Y153769D01*
X13216Y151900D01*
X13588Y150031D01*
X13671Y149907D01*
X12907Y148764D01*
X11800Y148984D01*
X9931Y148612D01*
X8347Y147553D01*
X7288Y145969D01*
X6916Y144100D01*
X7288Y142231D01*
X8347Y140647D01*
X9931Y139588D01*
X11800Y139216D01*
X13669Y139588D01*
X15253Y140647D01*
X16312Y142231D01*
X16684Y144100D01*
X16312Y145969D01*
X16229Y146094D01*
X16993Y147236D01*
X18100Y147016D01*
X19969Y147388D01*
X21553Y148447D01*
X22612Y150031D01*
X22984Y151900D01*
X22612Y153769D01*
X21553Y155353D01*
X19969Y156412D01*
X18100Y156784D01*
D02*
G37*
G36*
X101000Y154884D02*
X99131Y154512D01*
X97547Y153453D01*
X96488Y151869D01*
X96116Y150000D01*
X96488Y148131D01*
X97547Y146547D01*
X99131Y145488D01*
X101000Y145116D01*
X102869Y145488D01*
X104453Y146547D01*
X105512Y148131D01*
X105884Y150000D01*
X105512Y151869D01*
X104453Y153453D01*
X102869Y154512D01*
X101000Y154884D01*
D02*
G37*
G36*
X127192Y153376D02*
X125323Y153004D01*
X123739Y151945D01*
X122680Y150361D01*
X122308Y148492D01*
X122680Y146623D01*
X123739Y145039D01*
X125323Y143980D01*
X127192Y143608D01*
X129061Y143980D01*
X130645Y145039D01*
X131704Y146623D01*
X132076Y148492D01*
X131704Y150361D01*
X130645Y151945D01*
X129061Y153004D01*
X127192Y153376D01*
D02*
G37*
G36*
X189200Y151384D02*
X187331Y151012D01*
X185747Y149953D01*
X184688Y148369D01*
X184316Y146500D01*
X184688Y144631D01*
X185747Y143047D01*
X187331Y141988D01*
X189200Y141616D01*
X191069Y141988D01*
X192653Y143047D01*
X193712Y144631D01*
X194084Y146500D01*
X193712Y148369D01*
X192653Y149953D01*
X191069Y151012D01*
X189200Y151384D01*
D02*
G37*
G36*
X577700Y147184D02*
X575831Y146812D01*
X574247Y145753D01*
X573188Y144169D01*
X572816Y142300D01*
X573188Y140431D01*
X574247Y138847D01*
X575831Y137788D01*
X577700Y137416D01*
X579569Y137788D01*
X581153Y138847D01*
X582212Y140431D01*
X582584Y142300D01*
X582212Y144169D01*
X581153Y145753D01*
X579569Y146812D01*
X577700Y147184D01*
D02*
G37*
G36*
X666100Y146584D02*
X664231Y146212D01*
X662647Y145153D01*
X661588Y143569D01*
X661216Y141700D01*
X661588Y139831D01*
X662647Y138247D01*
X664231Y137188D01*
X666100Y136816D01*
X667969Y137188D01*
X669553Y138247D01*
X670612Y139831D01*
X670984Y141700D01*
X670612Y143569D01*
X669553Y145153D01*
X667969Y146212D01*
X666100Y146584D01*
D02*
G37*
G36*
X632001Y146483D02*
X630132Y146111D01*
X628548Y145052D01*
X627489Y143468D01*
X627117Y141599D01*
X627489Y139730D01*
X628548Y138146D01*
X630132Y137087D01*
X632001Y136715D01*
X633870Y137087D01*
X635454Y138146D01*
X636513Y139730D01*
X636885Y141599D01*
X636513Y143468D01*
X635454Y145052D01*
X633870Y146111D01*
X632001Y146483D01*
D02*
G37*
G36*
X276400Y145184D02*
X274531Y144812D01*
X272947Y143753D01*
X271888Y142169D01*
X271516Y140300D01*
X271888Y138431D01*
X272947Y136847D01*
X274531Y135788D01*
X276400Y135416D01*
X278269Y135788D01*
X279853Y136847D01*
X280912Y138431D01*
X281284Y140300D01*
X280912Y142169D01*
X279853Y143753D01*
X278269Y144812D01*
X276400Y145184D01*
D02*
G37*
G36*
X567600Y138284D02*
X565731Y137912D01*
X564147Y136853D01*
X563088Y135269D01*
X562716Y133400D01*
X563088Y131531D01*
X564147Y129947D01*
X565731Y128888D01*
X567600Y128516D01*
X569469Y128888D01*
X571053Y129947D01*
X572112Y131531D01*
X572484Y133400D01*
X572112Y135269D01*
X571053Y136853D01*
X569469Y137912D01*
X567600Y138284D01*
D02*
G37*
G36*
X254400Y119784D02*
X252531Y119412D01*
X250947Y118354D01*
X250647Y118153D01*
X250016D01*
X249368Y118277D01*
X247969Y119212D01*
X246100Y119584D01*
X244231Y119212D01*
X242647Y118153D01*
X241588Y116569D01*
X241216Y114700D01*
X241588Y112831D01*
X242647Y111247D01*
X244231Y110188D01*
X246100Y109816D01*
X247969Y110188D01*
X249317Y111089D01*
X249765Y111033D01*
X250240Y110857D01*
X250320Y110812D01*
X250597Y109930D01*
X249888Y108869D01*
X249516Y107000D01*
X249888Y105131D01*
X250947Y103547D01*
X251458Y103205D01*
X251668Y101537D01*
X251088Y100669D01*
X250716Y98800D01*
X251088Y96931D01*
X252147Y95347D01*
X252671Y94997D01*
X252947Y93653D01*
X251888Y92069D01*
X251516Y90200D01*
X251888Y88331D01*
X252947Y86747D01*
X254531Y85688D01*
X256400Y85316D01*
X258269Y85688D01*
X259853Y86747D01*
X260005Y86974D01*
X261331Y86088D01*
X263200Y85716D01*
X265069Y86088D01*
X266653Y87147D01*
X267712Y88731D01*
X268084Y90600D01*
X267712Y92469D01*
X266654Y94053D01*
X266453Y94353D01*
Y94984D01*
X266577Y95632D01*
X267512Y97031D01*
X267884Y98900D01*
X267512Y100769D01*
X266608Y102123D01*
X266458Y102526D01*
X266493Y103855D01*
X267212Y104931D01*
X267584Y106800D01*
X267212Y108669D01*
X266493Y109746D01*
X266458Y111074D01*
X266608Y111477D01*
X267512Y112831D01*
X267884Y114700D01*
X267512Y116569D01*
X266453Y118153D01*
X264869Y119212D01*
X263000Y119584D01*
X261131Y119212D01*
X259547Y118153D01*
X259402Y117937D01*
X258132D01*
X257853Y118353D01*
X256269Y119412D01*
X254400Y119784D01*
D02*
G37*
G36*
X94500Y117184D02*
X92631Y116812D01*
X91047Y115753D01*
X89988Y114169D01*
X89616Y112300D01*
X89988Y110431D01*
X91047Y108847D01*
X92631Y107788D01*
X94500Y107416D01*
X96369Y107788D01*
X97953Y108847D01*
X99012Y110431D01*
X99384Y112300D01*
X99012Y114169D01*
X97953Y115753D01*
X96369Y116812D01*
X94500Y117184D01*
D02*
G37*
G36*
X53400Y128384D02*
X51531Y128012D01*
X49947Y126953D01*
X48888Y125369D01*
X48516Y123500D01*
X48562Y123270D01*
X48060Y122734D01*
X47450Y122352D01*
X44370D01*
X42501Y122106D01*
X40759Y121384D01*
X39263Y120237D01*
X38116Y118741D01*
X37394Y116999D01*
X37148Y115130D01*
Y113370D01*
X37394Y111501D01*
X38116Y109759D01*
X39263Y108264D01*
X40759Y107116D01*
X42501Y106394D01*
X44370Y106148D01*
X47630D01*
X49499Y106394D01*
X51241Y107116D01*
X52737Y108264D01*
X53884Y109759D01*
X54606Y111501D01*
X54852Y113370D01*
Y115130D01*
X54606Y116999D01*
X54278Y117790D01*
X54877Y118910D01*
X55269Y118988D01*
X56853Y120047D01*
X57912Y121631D01*
X58284Y123500D01*
X57912Y125369D01*
X56853Y126953D01*
X55269Y128012D01*
X53400Y128384D01*
D02*
G37*
G36*
X127192Y115076D02*
X125323Y114704D01*
X123739Y113645D01*
X122680Y112061D01*
X122308Y110192D01*
X122680Y108323D01*
X123739Y106739D01*
X123960Y106591D01*
X123691Y105243D01*
X122531Y105012D01*
X120947Y103953D01*
X119888Y102369D01*
X119516Y100500D01*
X119888Y98631D01*
X120947Y97047D01*
X122531Y95988D01*
X124400Y95616D01*
X126269Y95988D01*
X127853Y97047D01*
X128912Y98631D01*
X129284Y100500D01*
X128912Y102369D01*
X127853Y103953D01*
X127633Y104101D01*
X127901Y105449D01*
X129061Y105680D01*
X130645Y106739D01*
X131704Y108323D01*
X132076Y110192D01*
X131704Y112061D01*
X130645Y113645D01*
X129061Y114704D01*
X127192Y115076D01*
D02*
G37*
G36*
X45200Y86784D02*
X43331Y86412D01*
X41747Y85353D01*
X40688Y83769D01*
X40339Y82016D01*
X39987Y81825D01*
X39077Y81619D01*
X38653Y82253D01*
X37069Y83312D01*
X35200Y83684D01*
X33331Y83312D01*
X31747Y82253D01*
X30688Y80669D01*
X30316Y78800D01*
X30688Y76931D01*
X31747Y75347D01*
X33331Y74288D01*
X35200Y73916D01*
X37069Y74288D01*
X38653Y75347D01*
X39712Y76931D01*
X40061Y78684D01*
X40414Y78875D01*
X41323Y79081D01*
X41747Y78447D01*
X42251Y78110D01*
X41288Y76669D01*
X40916Y74800D01*
X41288Y72931D01*
X42347Y71347D01*
X43931Y70288D01*
X45800Y69916D01*
X47669Y70288D01*
X49253Y71347D01*
X50068Y72565D01*
X50931Y71988D01*
X52800Y71616D01*
X54669Y71988D01*
X56253Y73047D01*
X57312Y74631D01*
X57684Y76500D01*
X57312Y78369D01*
X56253Y79953D01*
X54669Y81012D01*
X52800Y81384D01*
X51213Y81068D01*
X50074Y81851D01*
X50084Y81900D01*
X49712Y83769D01*
X48653Y85353D01*
X47069Y86412D01*
X45200Y86784D01*
D02*
G37*
G36*
X260600Y78384D02*
X258731Y78012D01*
X257147Y76953D01*
X256088Y75369D01*
X255716Y73500D01*
X256088Y71631D01*
X257147Y70047D01*
X258731Y68988D01*
X260600Y68616D01*
X262469Y68988D01*
X264053Y70047D01*
X265112Y71631D01*
X265484Y73500D01*
X265112Y75369D01*
X264053Y76953D01*
X262469Y78012D01*
X260600Y78384D01*
D02*
G37*
G36*
X165100Y77484D02*
X163231Y77112D01*
X161647Y76053D01*
X160588Y74469D01*
X160216Y72600D01*
X160588Y70731D01*
X161647Y69147D01*
X163231Y68088D01*
X165100Y67716D01*
X166969Y68088D01*
X168553Y69147D01*
X169612Y70731D01*
X169984Y72600D01*
X169612Y74469D01*
X168553Y76053D01*
X166969Y77112D01*
X165100Y77484D01*
D02*
G37*
G36*
X186000Y58384D02*
X184131Y58012D01*
X182547Y56953D01*
X181488Y55369D01*
X181116Y53500D01*
X181488Y51631D01*
X182547Y50047D01*
X184131Y48988D01*
X186000Y48616D01*
X187869Y48988D01*
X189453Y50047D01*
X190512Y51631D01*
X190884Y53500D01*
X190512Y55369D01*
X189453Y56953D01*
X187869Y58012D01*
X186000Y58384D01*
D02*
G37*
G36*
X207000Y57784D02*
X205131Y57412D01*
X203547Y56353D01*
X202488Y54769D01*
X202116Y52900D01*
X202488Y51031D01*
X203547Y49447D01*
X205131Y48388D01*
X207000Y48016D01*
X208869Y48388D01*
X210453Y49447D01*
X211512Y51031D01*
X211884Y52900D01*
X211512Y54769D01*
X210453Y56353D01*
X208869Y57412D01*
X207000Y57784D01*
D02*
G37*
G36*
X261800Y56384D02*
X259931Y56012D01*
X258347Y54953D01*
X257288Y53369D01*
X256916Y51500D01*
X257288Y49631D01*
X258347Y48047D01*
X259931Y46988D01*
X261800Y46616D01*
X263669Y46988D01*
X265253Y48047D01*
X266312Y49631D01*
X266684Y51500D01*
X266312Y53369D01*
X265253Y54953D01*
X263669Y56012D01*
X261800Y56384D01*
D02*
G37*
G36*
X63900Y58384D02*
X62031Y58012D01*
X60447Y56953D01*
X59388Y55369D01*
X59016Y53500D01*
X59388Y51631D01*
X60447Y50047D01*
X60547Y49980D01*
Y49753D01*
X59488Y48169D01*
X59116Y46300D01*
X59488Y44431D01*
X60547Y42847D01*
X62131Y41788D01*
X64000Y41416D01*
X65869Y41788D01*
X67453Y42847D01*
X68512Y44431D01*
X68884Y46300D01*
X68512Y48169D01*
X67453Y49753D01*
X67353Y49820D01*
Y50047D01*
X68412Y51631D01*
X68784Y53500D01*
X68412Y55369D01*
X67353Y56953D01*
X65769Y58012D01*
X63900Y58384D01*
D02*
G37*
G36*
X661440Y38140D02*
X640360D01*
Y13060D01*
X661440D01*
Y38140D01*
D02*
G37*
G36*
X625500Y38231D02*
X622748Y37869D01*
X620185Y36807D01*
X617983Y35117D01*
X616293Y32915D01*
X615231Y30352D01*
X614869Y27600D01*
Y23600D01*
X615231Y20849D01*
X616293Y18284D01*
X617983Y16083D01*
X620185Y14393D01*
X622748Y13331D01*
X625500Y12969D01*
X628251Y13331D01*
X630816Y14393D01*
X633017Y16083D01*
X634707Y18284D01*
X635769Y20849D01*
X636131Y23600D01*
Y27600D01*
X635769Y30352D01*
X634707Y32915D01*
X633017Y35117D01*
X630816Y36807D01*
X628251Y37869D01*
X625500Y38231D01*
D02*
G37*
G36*
X600100D02*
X597349Y37869D01*
X594785Y36807D01*
X592583Y35117D01*
X590893Y32915D01*
X589831Y30352D01*
X589469Y27600D01*
Y23600D01*
X589831Y20849D01*
X590893Y18284D01*
X592583Y16083D01*
X594785Y14393D01*
X597349Y13331D01*
X600100Y12969D01*
X602851Y13331D01*
X605415Y14393D01*
X607617Y16083D01*
X609307Y18284D01*
X610369Y20849D01*
X610731Y23600D01*
Y27600D01*
X610369Y30352D01*
X609307Y32915D01*
X607617Y35117D01*
X605415Y36807D01*
X602851Y37869D01*
X600100Y38231D01*
D02*
G37*
G36*
X574700D02*
X571949Y37869D01*
X569384Y36807D01*
X567183Y35117D01*
X565493Y32915D01*
X564431Y30352D01*
X564069Y27600D01*
Y23600D01*
X564431Y20849D01*
X565493Y18284D01*
X567183Y16083D01*
X569384Y14393D01*
X571949Y13331D01*
X574700Y12969D01*
X577452Y13331D01*
X580015Y14393D01*
X582217Y16083D01*
X583907Y18284D01*
X584969Y20849D01*
X585331Y23600D01*
Y27600D01*
X584969Y30352D01*
X583907Y32915D01*
X582217Y35117D01*
X580015Y36807D01*
X577452Y37869D01*
X574700Y38231D01*
D02*
G37*
G36*
X549300D02*
X546549Y37869D01*
X543984Y36807D01*
X541783Y35117D01*
X540093Y32915D01*
X539031Y30352D01*
X538669Y27600D01*
Y23600D01*
X539031Y20849D01*
X540093Y18284D01*
X541783Y16083D01*
X543984Y14393D01*
X546549Y13331D01*
X549300Y12969D01*
X552052Y13331D01*
X554616Y14393D01*
X556817Y16083D01*
X558507Y18284D01*
X559569Y20849D01*
X559931Y23600D01*
Y27600D01*
X559569Y30352D01*
X558507Y32915D01*
X556817Y35117D01*
X554616Y36807D01*
X552052Y37869D01*
X549300Y38231D01*
D02*
G37*
G36*
X523900D02*
X521148Y37869D01*
X518585Y36807D01*
X516383Y35117D01*
X514693Y32915D01*
X513631Y30352D01*
X513269Y27600D01*
Y23600D01*
X513631Y20849D01*
X514693Y18284D01*
X516383Y16083D01*
X518585Y14393D01*
X521148Y13331D01*
X523900Y12969D01*
X526651Y13331D01*
X529216Y14393D01*
X531417Y16083D01*
X533107Y18284D01*
X534169Y20849D01*
X534531Y23600D01*
Y27600D01*
X534169Y30352D01*
X533107Y32915D01*
X531417Y35117D01*
X529216Y36807D01*
X526651Y37869D01*
X523900Y38231D01*
D02*
G37*
G36*
X498500D02*
X495748Y37869D01*
X493185Y36807D01*
X490983Y35117D01*
X489293Y32915D01*
X488231Y30352D01*
X487869Y27600D01*
Y23600D01*
X488231Y20849D01*
X489293Y18284D01*
X490983Y16083D01*
X493185Y14393D01*
X495748Y13331D01*
X498500Y12969D01*
X501251Y13331D01*
X503815Y14393D01*
X506017Y16083D01*
X507707Y18284D01*
X508769Y20849D01*
X509131Y23600D01*
Y27600D01*
X508769Y30352D01*
X507707Y32915D01*
X506017Y35117D01*
X503815Y36807D01*
X501251Y37869D01*
X498500Y38231D01*
D02*
G37*
G36*
X473100D02*
X470349Y37869D01*
X467785Y36807D01*
X465583Y35117D01*
X463893Y32915D01*
X462831Y30352D01*
X462469Y27600D01*
Y23600D01*
X462831Y20849D01*
X463893Y18284D01*
X465583Y16083D01*
X467785Y14393D01*
X470349Y13331D01*
X473100Y12969D01*
X475852Y13331D01*
X478415Y14393D01*
X480617Y16083D01*
X482307Y18284D01*
X483369Y20849D01*
X483731Y23600D01*
Y27600D01*
X483369Y30352D01*
X482307Y32915D01*
X480617Y35117D01*
X478415Y36807D01*
X475852Y37869D01*
X473100Y38231D01*
D02*
G37*
G36*
X440740Y37940D02*
X419660D01*
Y12860D01*
X440740D01*
Y37940D01*
D02*
G37*
G36*
X404800Y38031D02*
X402048Y37669D01*
X399484Y36607D01*
X397283Y34917D01*
X395593Y32715D01*
X394531Y30152D01*
X394169Y27400D01*
Y23400D01*
X394531Y20649D01*
X395593Y18084D01*
X397283Y15883D01*
X399484Y14193D01*
X402048Y13131D01*
X404800Y12769D01*
X407551Y13131D01*
X410116Y14193D01*
X412317Y15883D01*
X414007Y18084D01*
X415069Y20649D01*
X415431Y23400D01*
Y27400D01*
X415069Y30152D01*
X414007Y32715D01*
X412317Y34917D01*
X410116Y36607D01*
X407551Y37669D01*
X404800Y38031D01*
D02*
G37*
G36*
X379400D02*
X376648Y37669D01*
X374085Y36607D01*
X371883Y34917D01*
X370193Y32715D01*
X369131Y30152D01*
X368769Y27400D01*
Y23400D01*
X369131Y20649D01*
X370193Y18084D01*
X371883Y15883D01*
X374085Y14193D01*
X376648Y13131D01*
X379400Y12769D01*
X382151Y13131D01*
X384715Y14193D01*
X386917Y15883D01*
X388607Y18084D01*
X389669Y20649D01*
X390031Y23400D01*
Y27400D01*
X389669Y30152D01*
X388607Y32715D01*
X386917Y34917D01*
X384715Y36607D01*
X382151Y37669D01*
X379400Y38031D01*
D02*
G37*
G36*
X354000D02*
X351249Y37669D01*
X348685Y36607D01*
X346483Y34917D01*
X344793Y32715D01*
X343731Y30152D01*
X343369Y27400D01*
Y23400D01*
X343731Y20649D01*
X344793Y18084D01*
X346483Y15883D01*
X348685Y14193D01*
X351249Y13131D01*
X354000Y12769D01*
X356752Y13131D01*
X359315Y14193D01*
X361517Y15883D01*
X363207Y18084D01*
X364269Y20649D01*
X364631Y23400D01*
Y27400D01*
X364269Y30152D01*
X363207Y32715D01*
X361517Y34917D01*
X359315Y36607D01*
X356752Y37669D01*
X354000Y38031D01*
D02*
G37*
G36*
X328600D02*
X325849Y37669D01*
X323284Y36607D01*
X321083Y34917D01*
X319393Y32715D01*
X318331Y30152D01*
X317969Y27400D01*
Y23400D01*
X318331Y20649D01*
X319393Y18084D01*
X321083Y15883D01*
X323284Y14193D01*
X325849Y13131D01*
X328600Y12769D01*
X331352Y13131D01*
X333915Y14193D01*
X336117Y15883D01*
X337807Y18084D01*
X338869Y20649D01*
X339231Y23400D01*
Y27400D01*
X338869Y30152D01*
X337807Y32715D01*
X336117Y34917D01*
X333915Y36607D01*
X331352Y37669D01*
X328600Y38031D01*
D02*
G37*
G36*
X303200D02*
X300448Y37669D01*
X297885Y36607D01*
X295683Y34917D01*
X293993Y32715D01*
X292931Y30152D01*
X292569Y27400D01*
Y23400D01*
X292931Y20649D01*
X293993Y18084D01*
X295683Y15883D01*
X297885Y14193D01*
X300448Y13131D01*
X303200Y12769D01*
X305951Y13131D01*
X308515Y14193D01*
X310717Y15883D01*
X312407Y18084D01*
X313469Y20649D01*
X313831Y23400D01*
Y27400D01*
X313469Y30152D01*
X312407Y32715D01*
X310717Y34917D01*
X308515Y36607D01*
X305951Y37669D01*
X303200Y38031D01*
D02*
G37*
G36*
X277800D02*
X275049Y37669D01*
X272484Y36607D01*
X270283Y34917D01*
X268593Y32715D01*
X267531Y30152D01*
X267169Y27400D01*
Y23400D01*
X267531Y20649D01*
X268593Y18084D01*
X270283Y15883D01*
X272484Y14193D01*
X275049Y13131D01*
X277800Y12769D01*
X280551Y13131D01*
X283116Y14193D01*
X285317Y15883D01*
X287007Y18084D01*
X288069Y20649D01*
X288431Y23400D01*
Y27400D01*
X288069Y30152D01*
X287007Y32715D01*
X285317Y34917D01*
X283116Y36607D01*
X280551Y37669D01*
X277800Y38031D01*
D02*
G37*
G36*
X252400D02*
X249648Y37669D01*
X247085Y36607D01*
X244883Y34917D01*
X243193Y32715D01*
X242131Y30152D01*
X241769Y27400D01*
Y23400D01*
X242131Y20649D01*
X243193Y18084D01*
X244883Y15883D01*
X247085Y14193D01*
X249648Y13131D01*
X252400Y12769D01*
X255152Y13131D01*
X257715Y14193D01*
X259917Y15883D01*
X261607Y18084D01*
X262669Y20649D01*
X263031Y23400D01*
Y27400D01*
X262669Y30152D01*
X261607Y32715D01*
X259917Y34917D01*
X257715Y36607D01*
X255152Y37669D01*
X252400Y38031D01*
D02*
G37*
G36*
X227000D02*
X224249Y37669D01*
X221684Y36607D01*
X219483Y34917D01*
X217793Y32715D01*
X216731Y30152D01*
X216369Y27400D01*
Y23400D01*
X216731Y20649D01*
X217793Y18084D01*
X219483Y15883D01*
X221684Y14193D01*
X224249Y13131D01*
X227000Y12769D01*
X229751Y13131D01*
X232316Y14193D01*
X234517Y15883D01*
X236207Y18084D01*
X237269Y20649D01*
X237631Y23400D01*
Y27400D01*
X237269Y30152D01*
X236207Y32715D01*
X234517Y34917D01*
X232316Y36607D01*
X229751Y37669D01*
X227000Y38031D01*
D02*
G37*
G36*
X201600D02*
X198848Y37669D01*
X196285Y36607D01*
X194083Y34917D01*
X192393Y32715D01*
X191331Y30152D01*
X190969Y27400D01*
Y23400D01*
X191331Y20649D01*
X192393Y18084D01*
X194083Y15883D01*
X196285Y14193D01*
X198848Y13131D01*
X201600Y12769D01*
X204352Y13131D01*
X206915Y14193D01*
X209117Y15883D01*
X210807Y18084D01*
X211869Y20649D01*
X212231Y23400D01*
Y27400D01*
X211869Y30152D01*
X210807Y32715D01*
X209117Y34917D01*
X206915Y36607D01*
X204352Y37669D01*
X201600Y38031D01*
D02*
G37*
G36*
X31400Y19384D02*
X29531Y19012D01*
X27947Y17953D01*
X26888Y16369D01*
X26516Y14500D01*
X26888Y12631D01*
X27947Y11047D01*
X29531Y9988D01*
X31400Y9616D01*
X33269Y9988D01*
X34853Y11047D01*
X35912Y12631D01*
X36284Y14500D01*
X35912Y16369D01*
X34853Y17953D01*
X33269Y19012D01*
X31400Y19384D01*
D02*
G37*
%LPD*%
D80*
X602500Y368500D02*
D03*
D81*
X537500D02*
D03*
D84*
X546400Y417600D02*
D03*
D87*
X416560Y508000D02*
D03*
D89*
X126000Y177050D02*
D03*
X298000Y322300D02*
D03*
X282000Y323800D02*
D03*
X348680Y395450D02*
D03*
X297960Y418000D02*
D03*
X298000Y433000D02*
D03*
Y448000D02*
D03*
X502000Y283400D02*
D03*
X494500Y356100D02*
D03*
X440300Y348500D02*
D03*
X467700Y425400D02*
D03*
X467200Y415000D02*
D03*
X467300Y403200D02*
D03*
X567100Y75800D02*
D03*
X525300Y82600D02*
D03*
X542400Y218000D02*
D03*
X31300Y57300D02*
D03*
X9500Y29500D02*
D03*
X65500Y9500D02*
D03*
X94000Y48600D02*
D03*
X131500Y95100D02*
D03*
X112000Y71000D02*
D03*
X87000Y89500D02*
D03*
X234000Y325700D02*
D03*
X90000Y296400D02*
D03*
X194000Y323600D02*
D03*
X258000Y183200D02*
D03*
X210000Y208900D02*
D03*
X466200Y296400D02*
D03*
X458200Y288400D02*
D03*
X410200Y280400D02*
D03*
X362200Y256400D02*
D03*
X442200Y248400D02*
D03*
X362200Y224400D02*
D03*
X442200D02*
D03*
M02*
