G04*
G04 #@! TF.GenerationSoftware,Altium Limited,Altium Designer,18.1.9 (240)*
G04*
G04 Layer_Physical_Order=2*
G04 Layer_Color=32768*
%FSLAX44Y44*%
%MOMM*%
G71*
G01*
G75*
%ADD90C,1.0160*%
%ADD91C,2.0160*%
%ADD92O,2.0160X1.7780*%
G04:AMPARAMS|DCode=93|XSize=2.374mm|YSize=2.374mm|CornerRadius=0mm|HoleSize=0mm|Usage=FLASHONLY|Rotation=0.000|XOffset=0mm|YOffset=0mm|HoleType=Round|Shape=Relief|Width=0.254mm|Gap=0.254mm|Entries=4|*
%AMTHD93*
7,0,0,2.3740,1.8660,0.2540,45*
%
%ADD93THD93*%
G04:AMPARAMS|DCode=94|XSize=2.824mm|YSize=2.824mm|CornerRadius=0mm|HoleSize=0mm|Usage=FLASHONLY|Rotation=0.000|XOffset=0mm|YOffset=0mm|HoleType=Round|Shape=Relief|Width=0.254mm|Gap=0.254mm|Entries=4|*
%AMTHD94*
7,0,0,2.8240,2.3160,0.2540,45*
%
%ADD94THD94*%
%ADD95C,2.1160*%
G04:AMPARAMS|DCode=96|XSize=2.624mm|YSize=2.624mm|CornerRadius=0mm|HoleSize=0mm|Usage=FLASHONLY|Rotation=0.000|XOffset=0mm|YOffset=0mm|HoleType=Round|Shape=Relief|Width=0.254mm|Gap=0.254mm|Entries=4|*
%AMTHD96*
7,0,0,2.6240,2.1160,0.2540,45*
%
%ADD96THD96*%
G04:AMPARAMS|DCode=97|XSize=4.724mm|YSize=4.724mm|CornerRadius=0mm|HoleSize=0mm|Usage=FLASHONLY|Rotation=0.000|XOffset=0mm|YOffset=0mm|HoleType=Round|Shape=Relief|Width=0.254mm|Gap=0.254mm|Entries=4|*
%AMTHD97*
7,0,0,4.7240,4.2160,0.2540,45*
%
%ADD97THD97*%
G04:AMPARAMS|DCode=98|XSize=1.724mm|YSize=1.724mm|CornerRadius=0mm|HoleSize=0mm|Usage=FLASHONLY|Rotation=0.000|XOffset=0mm|YOffset=0mm|HoleType=Round|Shape=Relief|Width=0.254mm|Gap=0.254mm|Entries=4|*
%AMTHD98*
7,0,0,1.7240,1.2160,0.2540,45*
%
%ADD98THD98*%
%ADD99C,1.2160*%
D90*
X0Y0D02*
Y533400D01*
X685800D01*
Y0D02*
Y533400D01*
X0Y0D02*
X685800D01*
D91*
X537500Y323500D02*
D03*
X602500D02*
D03*
Y368500D02*
D03*
D92*
X537500D02*
D03*
D93*
X46000Y158750D02*
D03*
Y114250D02*
D03*
X46250Y445750D02*
D03*
Y401250D02*
D03*
D94*
X16000Y178250D02*
D03*
Y94750D02*
D03*
X16250Y465250D02*
D03*
Y381750D02*
D03*
D95*
X495600Y417600D02*
D03*
X521000D02*
D03*
X546400D02*
D03*
X495600Y443000D02*
D03*
X521000D02*
D03*
X635000Y508000D02*
D03*
X609600D02*
D03*
X584200D02*
D03*
X558800D02*
D03*
X533400D02*
D03*
X508000D02*
D03*
X264160D02*
D03*
X314960D02*
D03*
X365760D02*
D03*
X416560D02*
D03*
X473100Y25600D02*
D03*
X498500D02*
D03*
X523900D02*
D03*
X549300D02*
D03*
X574700D02*
D03*
X600100D02*
D03*
X625500D02*
D03*
X650900D02*
D03*
X430200Y25400D02*
D03*
X404800D02*
D03*
X379400D02*
D03*
X354000D02*
D03*
X328600D02*
D03*
X303200D02*
D03*
X277800D02*
D03*
X252400D02*
D03*
X227000D02*
D03*
D96*
X546400Y443000D02*
D03*
X238760Y508000D02*
D03*
X289560D02*
D03*
X340360D02*
D03*
X391160D02*
D03*
X201600Y25400D02*
D03*
D97*
X127000Y508000D02*
D03*
X660400Y355600D02*
D03*
X658900Y91200D02*
D03*
X139700Y25400D02*
D03*
D98*
X86000Y159100D02*
D03*
X101000Y150000D02*
D03*
X282000Y204900D02*
D03*
X82000Y490500D02*
D03*
X90000Y207500D02*
D03*
X378200Y280400D02*
D03*
X330200Y280400D02*
D03*
X474200Y264400D02*
D03*
X450200Y192400D02*
D03*
X466200Y232400D02*
D03*
X458200Y216400D02*
D03*
X322200Y312400D02*
D03*
X434200Y184400D02*
D03*
X338200D02*
D03*
X370200D02*
D03*
X338200Y224400D02*
D03*
X556100Y315500D02*
D03*
X663900Y307600D02*
D03*
X666100Y141700D02*
D03*
X632001Y141599D02*
D03*
X577700Y142300D02*
D03*
X567600Y133400D02*
D03*
X512900Y164500D02*
D03*
X541400Y196000D02*
D03*
X541398Y266502D02*
D03*
X436800Y439900D02*
D03*
X129900Y410500D02*
D03*
X126820Y433920D02*
D03*
X258000Y345100D02*
D03*
X210000Y329100D02*
D03*
X192400Y344000D02*
D03*
X159000Y328800D02*
D03*
X298000Y182800D02*
D03*
X234000Y184500D02*
D03*
X242700Y165500D02*
D03*
X194000Y210800D02*
D03*
X199500Y170600D02*
D03*
X261800Y51500D02*
D03*
X260600Y73500D02*
D03*
X207000Y52900D02*
D03*
X186000Y53500D02*
D03*
X165100Y72600D02*
D03*
X94500Y112300D02*
D03*
X124400Y100500D02*
D03*
X127192Y110192D02*
D03*
Y148492D02*
D03*
X146000Y154800D02*
D03*
X31400Y14500D02*
D03*
X35200Y78800D02*
D03*
X18500Y127800D02*
D03*
X10900Y120500D02*
D03*
X18100Y151900D02*
D03*
X11800Y144100D02*
D03*
X34000Y243100D02*
D03*
X74800Y264500D02*
D03*
X74200Y300500D02*
D03*
X14000Y331900D02*
D03*
X20200Y340000D02*
D03*
X20600Y362000D02*
D03*
X53100Y410500D02*
D03*
X53400Y123500D02*
D03*
X434200Y320400D02*
D03*
X426200Y312400D02*
D03*
X410200Y304400D02*
D03*
X386200Y320400D02*
D03*
Y312400D02*
D03*
X370200Y304400D02*
D03*
X378200Y312400D02*
D03*
X362200D02*
D03*
X402200Y264400D02*
D03*
X426200Y280400D02*
D03*
X394200D02*
D03*
X370200Y264400D02*
D03*
X354200D02*
D03*
X426200Y208400D02*
D03*
X402200Y248400D02*
D03*
X418200D02*
D03*
X386200Y208400D02*
D03*
X362200Y240400D02*
D03*
X402200D02*
D03*
X394200Y232400D02*
D03*
X442200Y240400D02*
D03*
X386200Y216400D02*
D03*
X418200D02*
D03*
D99*
X126000Y177050D02*
D03*
X442200Y288400D02*
D03*
X458200Y256400D02*
D03*
X148800Y367700D02*
D03*
X426200Y296400D02*
D03*
X298000Y322300D02*
D03*
X282000Y323800D02*
D03*
X280700Y447600D02*
D03*
X59500Y442900D02*
D03*
X122200Y409400D02*
D03*
X348680Y395450D02*
D03*
X297960Y418000D02*
D03*
X298000Y433000D02*
D03*
Y448000D02*
D03*
X502000Y283400D02*
D03*
X494500Y356100D02*
D03*
X440300Y348500D02*
D03*
X467700Y425400D02*
D03*
X467200Y415000D02*
D03*
X467300Y403200D02*
D03*
X567100Y75800D02*
D03*
X525300Y82600D02*
D03*
X542400Y218000D02*
D03*
X31300Y57300D02*
D03*
X9500Y29500D02*
D03*
X65500Y9500D02*
D03*
X94000Y48600D02*
D03*
X131500Y95100D02*
D03*
X112000Y71000D02*
D03*
X87000Y89500D02*
D03*
X234000Y325700D02*
D03*
X90000Y296400D02*
D03*
X194000Y323600D02*
D03*
X258000Y183200D02*
D03*
X210000Y208900D02*
D03*
X246100Y114700D02*
D03*
X254400Y114900D02*
D03*
Y107000D02*
D03*
X255600Y98800D02*
D03*
X256400Y90200D02*
D03*
X263200Y90600D02*
D03*
X263000Y98900D02*
D03*
X262700Y106800D02*
D03*
X263000Y114700D02*
D03*
X64300Y372700D02*
D03*
X64100Y350000D02*
D03*
X62200Y310100D02*
D03*
X52500Y309700D02*
D03*
X47500Y350000D02*
D03*
Y363400D02*
D03*
X57000Y377300D02*
D03*
X47300Y377100D02*
D03*
X78600Y214800D02*
D03*
X76300Y224300D02*
D03*
X68300D02*
D03*
X60200D02*
D03*
X52040Y224500D02*
D03*
X84600Y362800D02*
D03*
X77350Y364900D02*
D03*
X89000Y367800D02*
D03*
X81000Y372600D02*
D03*
X72900Y372200D02*
D03*
X64000Y46300D02*
D03*
X63900Y53500D02*
D03*
X45800Y74800D02*
D03*
X52800Y76500D02*
D03*
X45200Y81900D02*
D03*
X189600Y158100D02*
D03*
X189200Y146500D02*
D03*
X171200Y147300D02*
D03*
X170900Y157800D02*
D03*
X181100Y167700D02*
D03*
X170700Y167100D02*
D03*
X62600Y192000D02*
D03*
X72300Y192700D02*
D03*
X72800Y160300D02*
D03*
X64300Y159600D02*
D03*
X72900Y151900D02*
D03*
X64100Y151800D02*
D03*
X418200Y296400D02*
D03*
X386200D02*
D03*
X346200Y304400D02*
D03*
X346200Y312400D02*
D03*
X521900Y291700D02*
D03*
X527100Y312900D02*
D03*
X505200Y321700D02*
D03*
X527400Y286200D02*
D03*
X482200Y264400D02*
D03*
Y280400D02*
D03*
X474200D02*
D03*
X484400Y296300D02*
D03*
X466200Y296400D02*
D03*
X248600Y158600D02*
D03*
X260300Y170500D02*
D03*
X591900Y304700D02*
D03*
X466200Y240400D02*
D03*
X511000Y265200D02*
D03*
X202900Y489000D02*
D03*
X584600Y301100D02*
D03*
X450200Y256400D02*
D03*
X458200Y264400D02*
D03*
X493500Y308000D02*
D03*
X428900Y362200D02*
D03*
X450200Y272400D02*
D03*
X458200D02*
D03*
X114000Y208040D02*
D03*
X281600Y158300D02*
D03*
X338200Y216400D02*
D03*
X289600Y344300D02*
D03*
X354200Y240400D02*
D03*
X346200D02*
D03*
X274000Y186000D02*
D03*
X290000Y183400D02*
D03*
X266000D02*
D03*
X250000D02*
D03*
X274000Y322600D02*
D03*
X266000D02*
D03*
X250000D02*
D03*
X242000D02*
D03*
X226000D02*
D03*
X218000D02*
D03*
X338500Y208100D02*
D03*
Y240100D02*
D03*
Y248100D02*
D03*
Y256100D02*
D03*
Y264100D02*
D03*
Y272100D02*
D03*
Y280100D02*
D03*
X346500Y296100D02*
D03*
X338500D02*
D03*
X354500Y208700D02*
D03*
Y200700D02*
D03*
X276400Y140300D02*
D03*
X158580Y409580D02*
D03*
X184800Y477000D02*
D03*
X145880Y436480D02*
D03*
X114120Y409580D02*
D03*
X145880Y410400D02*
D03*
X175300Y476100D02*
D03*
X458900Y372600D02*
D03*
X469000Y381750D02*
D03*
X492000Y389517D02*
D03*
X468000Y390000D02*
D03*
X490000Y397000D02*
D03*
X458200Y312400D02*
D03*
X458200Y288400D02*
D03*
X442200Y304400D02*
D03*
X402200Y312400D02*
D03*
X370200Y296400D02*
D03*
Y208400D02*
D03*
X434200Y280400D02*
D03*
X410200D02*
D03*
Y272400D02*
D03*
X402200D02*
D03*
X378200D02*
D03*
X362200Y280400D02*
D03*
Y256400D02*
D03*
X378200Y248400D02*
D03*
X426200Y256400D02*
D03*
Y248400D02*
D03*
X442200D02*
D03*
X386200Y240400D02*
D03*
X442200Y208400D02*
D03*
X386200Y232400D02*
D03*
X426200D02*
D03*
X362200Y224400D02*
D03*
X378200D02*
D03*
X410200D02*
D03*
X426200D02*
D03*
X442200D02*
D03*
M02*
