G04*
G04 #@! TF.GenerationSoftware,Altium Limited,Altium Designer,18.1.9 (240)*
G04*
G04 Layer_Color=8388736*
%FSLAX44Y44*%
%MOMM*%
G71*
G01*
G75*
%ADD38R,1.6032X1.8432*%
%ADD39R,1.0032X1.0032*%
%ADD40R,1.0032X1.0032*%
%ADD41R,1.5032X1.1032*%
%ADD42R,1.1032X1.5032*%
%ADD43R,0.8032X1.1032*%
%ADD44R,1.1032X0.8032*%
%ADD45R,0.7620X0.8890*%
%ADD46R,2.2032X2.9032*%
%ADD47R,2.9032X2.2032*%
%ADD48C,0.5432*%
%ADD49R,1.4032X0.9032*%
%ADD50R,1.3400X0.8400*%
%ADD51R,1.4032X1.2032*%
%ADD52R,2.1031X1.5032*%
%ADD53R,3.0033X1.2032*%
%ADD54R,1.0033X1.2032*%
%ADD55R,1.4032X1.2032*%
%ADD56C,3.0480*%
%ADD57R,2.1032X2.0032*%
%ADD58R,1.4008X0.4508*%
%ADD59R,1.3032X0.8032*%
%ADD60R,0.8032X1.3032*%
%ADD61R,0.6382X1.7292*%
%ADD62R,1.9882X0.8532*%
%ADD63R,0.8032X1.4982*%
%ADD64R,2.2032X2.0032*%
%ADD65C,2.1032*%
%ADD66R,2.1032X2.1032*%
G04:AMPARAMS|DCode=67|XSize=1.33mm|YSize=1.18mm|CornerRadius=0.502mm|HoleSize=0mm|Usage=FLASHONLY|Rotation=0.000|XOffset=0mm|YOffset=0mm|HoleType=Round|Shape=RoundedRectangle|*
%AMROUNDEDRECTD67*
21,1,1.3300,0.1760,0,0,0.0*
21,1,0.3260,1.1800,0,0,0.0*
1,1,1.0040,0.1630,-0.0880*
1,1,1.0040,-0.1630,-0.0880*
1,1,1.0040,-0.1630,0.0880*
1,1,1.0040,0.1630,0.0880*
%
%ADD67ROUNDEDRECTD67*%
G04:AMPARAMS|DCode=68|XSize=2.1032mm|YSize=2.6282mm|CornerRadius=0.6716mm|HoleSize=0mm|Usage=FLASHONLY|Rotation=0.000|XOffset=0mm|YOffset=0mm|HoleType=Round|Shape=RoundedRectangle|*
%AMROUNDEDRECTD68*
21,1,2.1032,1.2850,0,0,0.0*
21,1,0.7600,2.6282,0,0,0.0*
1,1,1.3432,0.3800,-0.6425*
1,1,1.3432,-0.3800,-0.6425*
1,1,1.3432,-0.3800,0.6425*
1,1,1.3432,0.3800,0.6425*
%
%ADD68ROUNDEDRECTD68*%
%ADD69C,1.9032*%
%ADD70R,1.9032X1.9032*%
%ADD71C,7.6032*%
%ADD72R,1.8032X2.2032*%
%ADD73O,1.8032X2.2032*%
D38*
X124650Y348000D02*
D03*
X84350D02*
D03*
D39*
X94000Y59000D02*
D03*
Y74000D02*
D03*
X161000Y99500D02*
D03*
Y114500D02*
D03*
X178000Y360000D02*
D03*
Y344000D02*
D03*
D40*
X43500Y308000D02*
D03*
X28500D02*
D03*
X103000Y162700D02*
D03*
X119000D02*
D03*
X66000Y481000D02*
D03*
X82000D02*
D03*
X143000Y342000D02*
D03*
X159000D02*
D03*
X219223Y169600D02*
D03*
X235223D02*
D03*
D41*
X61000Y283500D02*
D03*
Y264500D02*
D03*
X20000Y33500D02*
D03*
Y14500D02*
D03*
X112000Y81500D02*
D03*
Y100500D02*
D03*
X20000Y50500D02*
D03*
Y69500D02*
D03*
X61000Y319500D02*
D03*
Y300500D02*
D03*
X34000Y205500D02*
D03*
Y224500D02*
D03*
X186000Y85500D02*
D03*
Y66500D02*
D03*
X207000Y85500D02*
D03*
Y66500D02*
D03*
D42*
X131500Y82000D02*
D03*
X150500D02*
D03*
X67000Y173000D02*
D03*
X86000D02*
D03*
X56500Y362000D02*
D03*
X37500D02*
D03*
X55750Y340000D02*
D03*
X36750D02*
D03*
X180500Y157000D02*
D03*
X199500D02*
D03*
X229100Y51500D02*
D03*
X248100D02*
D03*
X229100Y73500D02*
D03*
X248100D02*
D03*
D43*
X276100Y150400D02*
D03*
X291100D02*
D03*
X276100Y165400D02*
D03*
X291100D02*
D03*
X276400Y116760D02*
D03*
X291400D02*
D03*
X276400Y130760D02*
D03*
X291400D02*
D03*
X86000Y121000D02*
D03*
X71000D02*
D03*
X86000Y136000D02*
D03*
X71000D02*
D03*
X122500Y370000D02*
D03*
X107500D02*
D03*
X76500Y417000D02*
D03*
X61500D02*
D03*
X76500Y431000D02*
D03*
X61500D02*
D03*
X94500Y103000D02*
D03*
X79500D02*
D03*
X94500Y89000D02*
D03*
X79500D02*
D03*
X43500Y323000D02*
D03*
X28500D02*
D03*
X117500Y177100D02*
D03*
X102500D02*
D03*
X537000Y303500D02*
D03*
X552000D02*
D03*
X83500Y466000D02*
D03*
X68500D02*
D03*
X233723Y153600D02*
D03*
X218723D02*
D03*
X494500Y346000D02*
D03*
X479500D02*
D03*
X450500D02*
D03*
X465500D02*
D03*
X460500Y401000D02*
D03*
X445500D02*
D03*
X307500Y433000D02*
D03*
X322500D02*
D03*
X460500Y415000D02*
D03*
X445500D02*
D03*
X307500Y448000D02*
D03*
X322500D02*
D03*
X307460Y418000D02*
D03*
X322460D02*
D03*
X460500Y430000D02*
D03*
X445500D02*
D03*
D44*
X14000Y321500D02*
D03*
Y306500D02*
D03*
X146000Y143500D02*
D03*
Y128500D02*
D03*
X145880Y99500D02*
D03*
Y114500D02*
D03*
X142000Y374500D02*
D03*
Y359500D02*
D03*
X157000Y374500D02*
D03*
Y359500D02*
D03*
X502000Y293000D02*
D03*
Y308000D02*
D03*
D45*
X333892Y135400D02*
D03*
X309508D02*
D03*
Y152400D02*
D03*
X333892D02*
D03*
X335192Y101440D02*
D03*
X310808D02*
D03*
Y118440D02*
D03*
X335192D02*
D03*
X102808Y137000D02*
D03*
X127192D02*
D03*
X102808Y120000D02*
D03*
X127192D02*
D03*
X446808Y362000D02*
D03*
X471192D02*
D03*
D46*
X48000Y24000D02*
D03*
X80000D02*
D03*
D47*
X61000Y241000D02*
D03*
Y209000D02*
D03*
X237000Y133000D02*
D03*
Y101000D02*
D03*
D48*
X446200Y324400D02*
D03*
X438200D02*
D03*
X462200D02*
D03*
X334200D02*
D03*
X350200D02*
D03*
X358200D02*
D03*
X366200D02*
D03*
X374200D02*
D03*
X390200D02*
D03*
X398200D02*
D03*
X422200D02*
D03*
X430200D02*
D03*
X470200D02*
D03*
X326200Y316400D02*
D03*
X334200D02*
D03*
X342200D02*
D03*
X350200D02*
D03*
X358200D02*
D03*
X366200D02*
D03*
X374200D02*
D03*
X382200D02*
D03*
X390200D02*
D03*
X398200D02*
D03*
X406200D02*
D03*
X414200D02*
D03*
X422200D02*
D03*
X430200D02*
D03*
X438200D02*
D03*
X446200D02*
D03*
X454200D02*
D03*
X462200D02*
D03*
X470200D02*
D03*
X478200D02*
D03*
X326200Y308400D02*
D03*
X334200D02*
D03*
X342200D02*
D03*
X350200D02*
D03*
X358200D02*
D03*
X366200D02*
D03*
X374200D02*
D03*
X382200D02*
D03*
X390200D02*
D03*
X398200D02*
D03*
X406200D02*
D03*
X414200D02*
D03*
X422200D02*
D03*
X430200D02*
D03*
X438200D02*
D03*
X446200D02*
D03*
X454200D02*
D03*
X462200D02*
D03*
X470200D02*
D03*
X478200D02*
D03*
X326200Y300400D02*
D03*
X334200D02*
D03*
X342200D02*
D03*
X350200D02*
D03*
X358200D02*
D03*
X366200D02*
D03*
X374200D02*
D03*
X382200D02*
D03*
X390200D02*
D03*
X398200D02*
D03*
X406200D02*
D03*
X414200D02*
D03*
X422200D02*
D03*
X430200D02*
D03*
X438200D02*
D03*
X446200D02*
D03*
X454200D02*
D03*
X462200D02*
D03*
X470200D02*
D03*
X478200D02*
D03*
X326200Y292400D02*
D03*
X334200D02*
D03*
X342200D02*
D03*
X350200D02*
D03*
X358200D02*
D03*
X366200D02*
D03*
X374200D02*
D03*
X382200D02*
D03*
X390200D02*
D03*
X398200D02*
D03*
X406200D02*
D03*
X414200D02*
D03*
X422200D02*
D03*
X430200D02*
D03*
X438200D02*
D03*
X446200D02*
D03*
X454200D02*
D03*
X462200D02*
D03*
X470200D02*
D03*
X478200D02*
D03*
X326200Y284400D02*
D03*
X334200D02*
D03*
X342200D02*
D03*
X350200D02*
D03*
X358200D02*
D03*
X446200D02*
D03*
X454200D02*
D03*
X462200D02*
D03*
X470200D02*
D03*
X478200D02*
D03*
X326200Y276400D02*
D03*
X334200D02*
D03*
X342200D02*
D03*
X350200D02*
D03*
X358200D02*
D03*
X366200D02*
D03*
X374200D02*
D03*
X382200D02*
D03*
X390200D02*
D03*
X398200D02*
D03*
X406200D02*
D03*
X414200D02*
D03*
X422200D02*
D03*
X430200D02*
D03*
X438200D02*
D03*
X446200D02*
D03*
X454200D02*
D03*
X462200D02*
D03*
X470200D02*
D03*
X478200D02*
D03*
X326200Y268400D02*
D03*
X334200D02*
D03*
X342200D02*
D03*
X350200D02*
D03*
X358200D02*
D03*
X366200D02*
D03*
X374200D02*
D03*
X382200D02*
D03*
X390200D02*
D03*
X398200D02*
D03*
X406200D02*
D03*
X414200D02*
D03*
X422200D02*
D03*
X430200D02*
D03*
X438200D02*
D03*
X446200D02*
D03*
X454200D02*
D03*
X462200D02*
D03*
X470200D02*
D03*
X478200D02*
D03*
X326200Y260400D02*
D03*
X334200D02*
D03*
X342200D02*
D03*
X350200D02*
D03*
X358200D02*
D03*
X366200D02*
D03*
X374200D02*
D03*
X382200D02*
D03*
X390200D02*
D03*
X398200D02*
D03*
X406200D02*
D03*
X414200D02*
D03*
X422200D02*
D03*
X430200D02*
D03*
X438200D02*
D03*
X446200D02*
D03*
X454200D02*
D03*
X462200D02*
D03*
X470200D02*
D03*
X478200D02*
D03*
X326200Y252400D02*
D03*
X334200D02*
D03*
X342200D02*
D03*
X350200D02*
D03*
X358200D02*
D03*
X366200D02*
D03*
X374200D02*
D03*
X382200D02*
D03*
X390200D02*
D03*
X398200D02*
D03*
X406200D02*
D03*
X414200D02*
D03*
X422200D02*
D03*
X430200D02*
D03*
X438200D02*
D03*
X446200D02*
D03*
X454200D02*
D03*
X462200D02*
D03*
X470200D02*
D03*
X478200D02*
D03*
X326200Y244400D02*
D03*
X334200D02*
D03*
X342200D02*
D03*
X350200D02*
D03*
X358200D02*
D03*
X366200D02*
D03*
X374200D02*
D03*
X382200D02*
D03*
X390200D02*
D03*
X398200D02*
D03*
X406200D02*
D03*
X414200D02*
D03*
X422200D02*
D03*
X430200D02*
D03*
X438200D02*
D03*
X446200D02*
D03*
X454200D02*
D03*
X462200D02*
D03*
X470200D02*
D03*
X478200D02*
D03*
X326200Y236400D02*
D03*
X334200D02*
D03*
X342200D02*
D03*
X350200D02*
D03*
X358200D02*
D03*
X366200D02*
D03*
X374200D02*
D03*
X382200D02*
D03*
X390200D02*
D03*
X398200D02*
D03*
X406200D02*
D03*
X414200D02*
D03*
X422200D02*
D03*
X430200D02*
D03*
X438200D02*
D03*
X446200D02*
D03*
X454200D02*
D03*
X462200D02*
D03*
X470200D02*
D03*
X478200D02*
D03*
X326200Y228400D02*
D03*
X334200D02*
D03*
X342200D02*
D03*
X350200D02*
D03*
X358200D02*
D03*
X366200D02*
D03*
X374200D02*
D03*
X382200D02*
D03*
X390200D02*
D03*
X398200D02*
D03*
X406200D02*
D03*
X414200D02*
D03*
X422200D02*
D03*
X430200D02*
D03*
X438200D02*
D03*
X446200D02*
D03*
X454200D02*
D03*
X462200D02*
D03*
X470200D02*
D03*
X478200D02*
D03*
X326200Y220400D02*
D03*
X334200D02*
D03*
X342200D02*
D03*
X350200D02*
D03*
X358200D02*
D03*
X366200D02*
D03*
X374200D02*
D03*
X382200D02*
D03*
X390200D02*
D03*
X398200D02*
D03*
X406200D02*
D03*
X414200D02*
D03*
X422200D02*
D03*
X430200D02*
D03*
X438200D02*
D03*
X446200D02*
D03*
X454200D02*
D03*
X462200D02*
D03*
X470200D02*
D03*
X478200D02*
D03*
X326200Y212400D02*
D03*
X334200D02*
D03*
X342200D02*
D03*
X350200D02*
D03*
X358200D02*
D03*
X366200D02*
D03*
X374200D02*
D03*
X382200D02*
D03*
X390200D02*
D03*
X398200D02*
D03*
X406200D02*
D03*
X414200D02*
D03*
X422200D02*
D03*
X430200D02*
D03*
X438200D02*
D03*
X446200D02*
D03*
X454200D02*
D03*
X462200D02*
D03*
X470200D02*
D03*
X478200D02*
D03*
X326200Y204400D02*
D03*
X334200D02*
D03*
X342200D02*
D03*
X350200D02*
D03*
X358200D02*
D03*
X366200D02*
D03*
X374200D02*
D03*
X382200D02*
D03*
X390200D02*
D03*
X398200D02*
D03*
X406200D02*
D03*
X414200D02*
D03*
X422200D02*
D03*
X430200D02*
D03*
X438200D02*
D03*
X446200D02*
D03*
X454200D02*
D03*
X462200D02*
D03*
X470200D02*
D03*
X478200D02*
D03*
X326200Y196400D02*
D03*
X334200D02*
D03*
X342200D02*
D03*
X350200D02*
D03*
X358200D02*
D03*
X366200D02*
D03*
X374200D02*
D03*
X382200D02*
D03*
X390200D02*
D03*
X398200D02*
D03*
X406200D02*
D03*
X414200D02*
D03*
X422200D02*
D03*
X430200D02*
D03*
X438200D02*
D03*
X446200D02*
D03*
X454200D02*
D03*
X462200D02*
D03*
X470200D02*
D03*
X478200D02*
D03*
X326200Y188400D02*
D03*
X334200D02*
D03*
X342200D02*
D03*
X350200D02*
D03*
X358200D02*
D03*
X366200D02*
D03*
X374200D02*
D03*
X382200D02*
D03*
X390200D02*
D03*
X398200D02*
D03*
X406200D02*
D03*
X414200D02*
D03*
X422200D02*
D03*
X430200D02*
D03*
X438200D02*
D03*
X446200D02*
D03*
X454200D02*
D03*
X462200D02*
D03*
X470200D02*
D03*
X478200D02*
D03*
X326200Y180400D02*
D03*
X334200D02*
D03*
X342200D02*
D03*
X350200D02*
D03*
X358200D02*
D03*
X366200D02*
D03*
X374200D02*
D03*
X382200D02*
D03*
X390200D02*
D03*
X398200D02*
D03*
X406200D02*
D03*
X414200D02*
D03*
X422200D02*
D03*
X430200D02*
D03*
X438200D02*
D03*
X446200D02*
D03*
X454200D02*
D03*
X462200D02*
D03*
X470200D02*
D03*
X478200D02*
D03*
X334200Y172400D02*
D03*
X342200D02*
D03*
X350200D02*
D03*
X358200D02*
D03*
X366200D02*
D03*
X374200D02*
D03*
X382200D02*
D03*
X390200D02*
D03*
X398200D02*
D03*
X406200D02*
D03*
X414200D02*
D03*
X422200D02*
D03*
X430200D02*
D03*
X438200D02*
D03*
X446200D02*
D03*
X454200D02*
D03*
X462200D02*
D03*
X470200D02*
D03*
D49*
X527000Y251000D02*
D03*
Y240000D02*
D03*
Y229000D02*
D03*
Y218000D02*
D03*
Y207000D02*
D03*
Y196000D02*
D03*
Y185000D02*
D03*
D50*
Y174000D02*
D03*
Y164500D02*
D03*
D51*
Y266502D02*
D03*
D52*
X678000Y290002D02*
D03*
D53*
X673502Y155001D02*
D03*
D54*
X632001D02*
D03*
D55*
X570000D02*
D03*
D56*
X281000Y87100D02*
D03*
X671000Y517000D02*
D03*
X10000Y524000D02*
D03*
X601300Y125100D02*
D03*
D57*
X16000Y125000D02*
D03*
Y148000D02*
D03*
X16250Y412000D02*
D03*
Y435000D02*
D03*
D58*
X42750Y123500D02*
D03*
Y130000D02*
D03*
Y136500D02*
D03*
Y143000D02*
D03*
Y149500D02*
D03*
X43000Y410500D02*
D03*
Y417000D02*
D03*
Y423500D02*
D03*
Y430000D02*
D03*
Y436500D02*
D03*
D59*
X48500Y68500D02*
D03*
Y59000D02*
D03*
Y49500D02*
D03*
X74500D02*
D03*
Y68500D02*
D03*
X206000Y114500D02*
D03*
Y124000D02*
D03*
Y133500D02*
D03*
X180000D02*
D03*
Y114500D02*
D03*
D60*
X18500Y287000D02*
D03*
X37500D02*
D03*
Y261000D02*
D03*
X28000D02*
D03*
X18500D02*
D03*
D61*
X158580Y450120D02*
D03*
X152220D02*
D03*
X145880D02*
D03*
X139520D02*
D03*
X133180D02*
D03*
X126820D02*
D03*
X120480D02*
D03*
X114120D02*
D03*
X107780D02*
D03*
X101420D02*
D03*
Y395880D02*
D03*
X107780D02*
D03*
X114120D02*
D03*
X120480D02*
D03*
X126820D02*
D03*
X133180D02*
D03*
X139520D02*
D03*
X145880D02*
D03*
X152220D02*
D03*
X158580D02*
D03*
D62*
X419320Y404950D02*
D03*
Y417650D02*
D03*
Y430350D02*
D03*
Y443050D02*
D03*
X348680D02*
D03*
Y430350D02*
D03*
Y417650D02*
D03*
Y404950D02*
D03*
D63*
X298000Y195720D02*
D03*
X290000D02*
D03*
X282000D02*
D03*
X274000D02*
D03*
X266000D02*
D03*
X258000D02*
D03*
X250000D02*
D03*
X242000D02*
D03*
X234000D02*
D03*
X226000D02*
D03*
X218000D02*
D03*
X210000D02*
D03*
X202000D02*
D03*
X194000D02*
D03*
X186000D02*
D03*
X178000D02*
D03*
X170000D02*
D03*
X162000D02*
D03*
X154000D02*
D03*
X146000D02*
D03*
X138000D02*
D03*
X130000D02*
D03*
X122000D02*
D03*
X114000D02*
D03*
X106000D02*
D03*
X98000D02*
D03*
X90000D02*
D03*
Y310280D02*
D03*
X98000D02*
D03*
X106000D02*
D03*
X114000D02*
D03*
X122000D02*
D03*
X130000D02*
D03*
X138000D02*
D03*
X146000D02*
D03*
X154000D02*
D03*
X162000D02*
D03*
X170000D02*
D03*
X178000D02*
D03*
X186000D02*
D03*
X194000D02*
D03*
X202000D02*
D03*
X210000D02*
D03*
X218000D02*
D03*
X226000D02*
D03*
X234000D02*
D03*
X242000D02*
D03*
X250000D02*
D03*
X258000D02*
D03*
X266000D02*
D03*
X274000D02*
D03*
X282000D02*
D03*
X290000D02*
D03*
X298000D02*
D03*
D64*
X506000Y82600D02*
D03*
X550000D02*
D03*
X506000Y133400D02*
D03*
X550000D02*
D03*
D65*
X537500Y323500D02*
D03*
X602500D02*
D03*
Y368500D02*
D03*
D66*
X537500D02*
D03*
D67*
X46000Y158750D02*
D03*
Y114250D02*
D03*
X46250Y445750D02*
D03*
Y401250D02*
D03*
D68*
X16000Y174620D02*
D03*
Y98380D02*
D03*
X16250Y461620D02*
D03*
Y385380D02*
D03*
D69*
X495600Y417600D02*
D03*
X521000D02*
D03*
X546400D02*
D03*
X495600Y443000D02*
D03*
X521000D02*
D03*
D70*
X546400D02*
D03*
D71*
X127000Y508000D02*
D03*
X660400Y355600D02*
D03*
X658900Y91200D02*
D03*
X139700Y25400D02*
D03*
D72*
X635000Y508000D02*
D03*
X416560D02*
D03*
X650900Y25600D02*
D03*
X430200Y25400D02*
D03*
D73*
X609600Y508000D02*
D03*
X584200D02*
D03*
X558800D02*
D03*
X533400D02*
D03*
X508000D02*
D03*
X238760D02*
D03*
X264160D02*
D03*
X289560D02*
D03*
X314960D02*
D03*
X340360D02*
D03*
X365760D02*
D03*
X391160D02*
D03*
X473100Y25600D02*
D03*
X498500D02*
D03*
X523900D02*
D03*
X549300D02*
D03*
X574700D02*
D03*
X600100D02*
D03*
X625500D02*
D03*
X404800Y25400D02*
D03*
X379400D02*
D03*
X354000D02*
D03*
X328600D02*
D03*
X303200D02*
D03*
X277800D02*
D03*
X252400D02*
D03*
X227000D02*
D03*
X201600D02*
D03*
M02*
