G04*
G04 #@! TF.GenerationSoftware,Altium Limited,Altium Designer,18.1.9 (240)*
G04*
G04 Layer_Color=16711935*
%FSLAX44Y44*%
%MOMM*%
G71*
G01*
G75*
%ADD39R,1.0032X1.0032*%
%ADD40R,1.0032X1.0032*%
%ADD65C,2.1032*%
%ADD66R,2.1032X2.1032*%
G04:AMPARAMS|DCode=67|XSize=1.33mm|YSize=1.18mm|CornerRadius=0.502mm|HoleSize=0mm|Usage=FLASHONLY|Rotation=0.000|XOffset=0mm|YOffset=0mm|HoleType=Round|Shape=RoundedRectangle|*
%AMROUNDEDRECTD67*
21,1,1.3300,0.1760,0,0,0.0*
21,1,0.3260,1.1800,0,0,0.0*
1,1,1.0040,0.1630,-0.0880*
1,1,1.0040,-0.1630,-0.0880*
1,1,1.0040,-0.1630,0.0880*
1,1,1.0040,0.1630,0.0880*
%
%ADD67ROUNDEDRECTD67*%
G04:AMPARAMS|DCode=68|XSize=2.1032mm|YSize=2.6282mm|CornerRadius=0.6716mm|HoleSize=0mm|Usage=FLASHONLY|Rotation=0.000|XOffset=0mm|YOffset=0mm|HoleType=Round|Shape=RoundedRectangle|*
%AMROUNDEDRECTD68*
21,1,2.1032,1.2850,0,0,0.0*
21,1,0.7600,2.6282,0,0,0.0*
1,1,1.3432,0.3800,-0.6425*
1,1,1.3432,-0.3800,-0.6425*
1,1,1.3432,-0.3800,0.6425*
1,1,1.3432,0.3800,0.6425*
%
%ADD68ROUNDEDRECTD68*%
%ADD69C,1.9032*%
%ADD70R,1.9032X1.9032*%
%ADD71C,7.6032*%
%ADD72R,1.8032X2.2032*%
%ADD73O,1.8032X2.2032*%
D39*
X398800Y288200D02*
D03*
Y303200D02*
D03*
X450500Y226400D02*
D03*
Y241400D02*
D03*
X354000Y232600D02*
D03*
Y217600D02*
D03*
X410100Y265500D02*
D03*
Y250500D02*
D03*
X370200Y239600D02*
D03*
Y224600D02*
D03*
D40*
X371300Y256200D02*
D03*
X386300D02*
D03*
X411900Y288600D02*
D03*
X426900D02*
D03*
X361300Y288800D02*
D03*
X376300D02*
D03*
X434300Y208900D02*
D03*
X419300D02*
D03*
D65*
X537500Y323500D02*
D03*
X602500D02*
D03*
Y368500D02*
D03*
D66*
X537500D02*
D03*
D67*
X46000Y158750D02*
D03*
Y114250D02*
D03*
X46250Y445750D02*
D03*
Y401250D02*
D03*
D68*
X16000Y174620D02*
D03*
Y98380D02*
D03*
X16250Y461620D02*
D03*
Y385380D02*
D03*
D69*
X495600Y417600D02*
D03*
X521000D02*
D03*
X546400D02*
D03*
X495600Y443000D02*
D03*
X521000D02*
D03*
D70*
X546400D02*
D03*
D71*
X127000Y508000D02*
D03*
X660400Y355600D02*
D03*
X658900Y91200D02*
D03*
X139700Y25400D02*
D03*
D72*
X635000Y508000D02*
D03*
X416560D02*
D03*
X650900Y25600D02*
D03*
X430200Y25400D02*
D03*
D73*
X609600Y508000D02*
D03*
X584200D02*
D03*
X558800D02*
D03*
X533400D02*
D03*
X508000D02*
D03*
X238760D02*
D03*
X264160D02*
D03*
X289560D02*
D03*
X314960D02*
D03*
X340360D02*
D03*
X365760D02*
D03*
X391160D02*
D03*
X473100Y25600D02*
D03*
X498500D02*
D03*
X523900D02*
D03*
X549300D02*
D03*
X574700D02*
D03*
X600100D02*
D03*
X625500D02*
D03*
X404800Y25400D02*
D03*
X379400D02*
D03*
X354000D02*
D03*
X328600D02*
D03*
X303200D02*
D03*
X277800D02*
D03*
X252400D02*
D03*
X227000D02*
D03*
X201600D02*
D03*
M02*
