M48
;Layer_Color=9474304
;FILE_FORMAT=4:4
METRIC,LZ
;TYPE=PLATED
T1F00S00C0.2000
T3F00S00C0.8500
T4F00S00C1.0000
T5F00S00C1.1000
T6F00S00C1.3000
T7F00S00C3.2000
%
T01
X003702Y001844
X003702Y002084
X003545Y002087
Y002007
X003622Y002244
X003782
X003862Y002324
Y002404
X003782Y002484
X003702Y002644
X003782Y002724
Y002804
X003622
X003702Y002964
X003702Y003044
X003782Y003124
X003862
X004022
X004102Y003044
X004182Y002964
X004262
Y002804
X004342
X004422Y002884
X004582
X004662Y002964
X004844Y002963
X004822Y002804
X004742
Y002644
X004822Y002644
X004582
Y002724
X004502
X004502Y002564
X004582Y002564
X004662Y002404
Y002324
X004582Y002164
X004422Y002244
Y002084
X004262
Y002244
Y002324
Y002484
X004182
X004022
Y002404
X003942Y002324
X004102Y002244
X004182Y002164
X003862
X003862Y002084
X003622Y002404
X003542Y002404
X003462
X003542Y002644
X003622Y002564
X004022Y002644
Y002724
X004102
Y002804
X003942
X003862Y002964
X003465Y002961
X003462Y003044
X003462Y003124
X003622
X004262
X004422Y003044
X004582Y003124
X004935Y00308
X00502Y002834
X00511Y002652
X00541398Y00266502
X005274Y002862
X005219Y002917
X005271Y003129
X005561Y003155
X005846Y003011
X005919Y003047
X006639Y003076
X006661Y001417
X00632001Y00141599
X005777Y001423
X005676Y001334
X005671Y000758
X005253Y000826
X005129Y001645
X005414Y00196
X005424Y00218
X004502Y001924
X004342Y001844
X004422Y002404
Y002484
X004262Y002564
X003385Y002561
Y002481
Y002401
X003382Y002244
Y002164
X003385Y002081
X003382Y001844
X00298Y001828
X0029Y001834
X00274Y00186
X00266Y001834
X00258Y001832
X0025Y001834
X00234Y001845
X002427Y001655
X002486Y001586
X002603Y001705
X002816Y001583
X002764Y001403
X00263Y001147
X002627Y001068
X00263Y000989
X002556Y000988
X002544Y00107
Y001149
X002461Y001147
X002564Y000902
X002632Y000906
X002606Y000735
X002618Y000515
X00207Y000529
X00186Y000535
X001651Y000726
X00112Y00071
X00094Y000486
X00064Y000463
X000639Y000535
X000528Y000765
X000458Y000748
X000452Y000819
X000352Y000788
X000313Y000573
X000314Y000145
X000095Y000295
X000655Y000095
X00087Y000895
X000945Y001123
X00127192Y00110192
X001244Y001005
X001315Y000951
X00127192Y00148492
X00146Y001548
X001709Y001578
X001707Y001671
X001811Y001677
X001896Y001581
X001892Y001465
X001712Y001473
X001995Y001706
X00194Y002108
X0021Y002089
X00282Y002049
X003385Y002641
Y002721
Y002801
X003302Y002804
X003385Y002961
X003222Y003124
X0009Y002964
X000742Y003005
X000622Y003101
X000525Y003097
X000748Y002645
X000763Y002243
X000683
X000602
X0005204Y002245
X000786Y002148
X0009Y002075
X00114Y0020804
X00126Y0017705
X00101Y0015
X00086Y001591
X000728Y001603
X000729Y001519
X000641Y001518
X000643Y001596
X000626Y00192
X000723Y001927
X000534Y001235
X000185Y001278
X000109Y001205
X000118Y001441
X000181Y001519
X00034Y002431
X00014Y003319
X000202Y0034
X000206Y00362
X000475Y003634
Y0035
X000641
X000643Y003727
X000729Y003722
X00081Y003726
X0007735Y003649
X000846Y003628
X00089Y003678
X00057Y003773
X000473Y003771
X000531Y004105
X000595Y004429
X00082Y004905
X0012682Y0043392
X0014588Y0043648
Y004104
X0015858Y0040958
X001299Y004105
X001222Y004094
X0011412Y0040958
X001488Y003677
X00159Y003288
X00194Y003236
X0021Y003291
X00218Y003226
X00226
X00234Y003257
X00242Y003226
X0025
X00266
X00274
X00282Y003238
X00298Y003223
X002896Y003443
X00258Y003451
X001924Y00344
X001848Y00477
X001753Y004761
X002029Y00489
X002807Y004476
X00298Y00448
Y00433
X0029796Y00418
X0034868Y0039545
X003862Y003204
X004342
X004403Y003485
X004289Y003622
X004589Y003726
X00469Y0038175
X00468Y0039
X004673Y004032
X004672Y00415
X004677Y004254
X004368Y004399
X0049Y00397
X00492Y00389517
X004945Y003561
X005052Y003217
T03
X00046Y0011425
Y0015875
X0004625Y0040125
Y0044575
T04
X005375Y003235
X006025
Y003685
T05
X00354Y000254
X003794
X004048
X004302
X004731Y000256
X004985
X005239
X005493
X005747
X006001
X006255
X006509
X003286Y000254
X003032
X002778
X002524
X00227
X002016
X0023876Y00508
X0026416
X0028956
X0031496
X0034036
X0036576
X0039116
X0041656
X00508
X005334
X005588
X005842
X006096
X00635
X005464Y00443
Y004176
X00521
X004956
Y00443
X00521
T06
X00016Y0009475
Y0017825
X0001625Y0038175
Y0046525
T07
X006589Y000912
X001397Y000254
X00127Y00508
X006604Y003556
M30
